<svg xmlns="http://www.w3.org/2000/svg" width="83" height="83" fill="none" viewBox="0 0 83 83">
  <path fill="#fff" d="M41.256.706c-22.606 0-41 18.393-41 41.011 0 11.697 4.93 22.254 12.812 29.736v.046l.41.376a40.596 40.596 0 0 0 9.954 6.765c.058.035.125.056.183.09.512.24 1.025.48 1.549.708.125.056.25.102.376.16.454.193.922.375 1.4.546.182.067.353.136.535.193a51 51 0 0 0 1.265.432c.227.069.443.138.671.205a44.4 44.4 0 0 0 1.162.332c.261.067.512.136.775.203.364.092.729.172 1.105.251.284.058.57.125.842.182.364.07.717.137 1.083.194.295.046.58.104.876.148.376.057.74.103 1.116.15.284.032.57.066.854.1.422.047.843.07 1.265.093.238.01.478.033.729.056a39.79 39.79 0 0 0 2.015.046c.627 0 1.253-.023 1.88-.046l.535-.035c.489-.033.98-.067 1.457-.113.148-.012.297-.023.445-.046a45.473 45.473 0 0 0 1.81-.228c.136-.021.286-.044.422-.067.478-.08.957-.16 1.434-.263l.503-.102c.57-.126 1.137-.251 1.706-.399.023-.011.046-.011.07-.011.615-.16 1.219-.33 1.81-.512.103-.035.205-.07.32-.104.523-.17 1.035-.341 1.547-.523.08-.035.161-.058.24-.09.604-.229 1.208-.457 1.8-.72a34.685 34.685 0 0 0 1.765-.795c.023-.012.057-.023.08-.035.455-.216.911-.456 1.354-.694 0 0 .012 0 .012-.011a41.082 41.082 0 0 0 3.315-1.949l.581-.376v-.022c10.82-7.38 17.937-19.805 17.937-33.87 0-22.608-18.393-41.012-41-41.012Zm23.063 71.75V31.445h5.124v-10.25c0-2.119-1.72-3.85-3.849-3.85H16.907a3.853 3.853 0 0 0-3.85 3.85V67.82C6.7 60.964 2.806 51.785 2.806 41.717 2.807 20.522 20.05 3.28 41.245 3.28s38.448 17.243 38.448 38.438c0 12.55-6.035 23.711-15.374 30.739Zm-11.822 6.025c-.49.148-.98.284-1.469.42l-.24.07c-.557.135-1.115.273-1.673.386-.127.023-.263.046-.388.08-.444.091-.9.172-1.355.239l-.445.069c-.558.079-1.116.159-1.686.216-.09.012-.192.012-.284.023-.489.045-.98.08-1.469.114-.159.011-.318.023-.479.023-.58.023-1.172.046-1.753.046a51.11 51.11 0 0 1-1.879-.046c-.228-.012-.445-.035-.661-.046-.4-.023-.796-.058-1.184-.09a17.994 17.994 0 0 1-.786-.093c-.353-.045-.706-.078-1.049-.136-.272-.034-.546-.092-.807-.126a27.458 27.458 0 0 1-1.014-.182c-.261-.056-.524-.102-.787-.16l-1.035-.237c-.24-.058-.48-.127-.729-.183-.364-.103-.74-.205-1.104-.32-.206-.055-.41-.124-.616-.193-.41-.137-.82-.273-1.23-.42-.149-.058-.308-.104-.456-.161a54.956 54.956 0 0 1-1.445-.57c-.07-.033-.138-.056-.206-.079a38.268 38.268 0 0 1-10.625-6.753V21.195c0-.707.57-1.287 1.275-1.287h45.066c0 .01-.012.033-.012.044a4.067 4.067 0 0 0-.136.535c-.012.035-.012.07-.012.104a2.635 2.635 0 0 0-.069.604v53.037a39.294 39.294 0 0 1-5.476 2.87c-.046.023-.092.035-.138.058-1.093.454-2.21.865-3.337 1.23-.09.022-.205.056-.307.091ZM64.32 21.195c0-.707.57-1.287 1.287-1.287.706 0 1.275.568 1.275 1.287v7.688H64.32v-7.688Z"/>
  <path fill="#fff" d="m49.57 51.842 1.823-1.822-.035-.034a16.51 16.51 0 0 0 3.952-9.556h.056v-2.573h-.056c-.627-8.167-7.164-14.704-15.318-15.32v-.055h-2.575v.056c-8.587.66-15.375 7.848-15.375 16.606 0 9.19 7.471 16.662 16.662 16.662 4.021 0 7.826-1.425 10.832-4.01l.033.046Zm-10.877 1.411c-7.767 0-14.099-6.32-14.099-14.098 0-7.346 5.638-13.394 12.812-14.042v14.566l10.307 10.307a13.951 13.951 0 0 1-9.02 3.267Zm14.042-12.811a13.988 13.988 0 0 1-3.199 7.743l-7.745-7.743h10.944Zm-12.754-2.574V25.113c6.752.613 12.14 6.002 12.754 12.755H39.981Z"/>
  <path fill="#fff" d="m34.616 33.29-2.3-1.151-4.521 9.054h4.03l-2.665 5.341 2.29 1.15 4.521-9.052h-4.03l2.675-5.343Zm10.489 25.089h12.813v2.562H45.105v-2.562Zm0 5.126h5.126v2.562h-5.126v-2.562Zm7.688 0h5.125v2.562h-5.125v-2.562Zm-7.688 5.124h10.25v2.563h-10.25V68.63Zm-7.699-10.25h-7.688v2.562h-2.562v-6.41H19.47v16.661h23.063v-7.687h-5.126v-5.126Zm2.575 10.25h-2.564v-2.562h2.564v2.562Zm-5.137 0h-2.562V60.94h2.562v7.688ZM22.03 57.092h2.563V68.63H22.03V57.092Zm5.125 6.413h2.562v5.124h-2.562v-5.124Z"/>
</svg>
