<svg xmlns="http://www.w3.org/2000/svg" width="83" height="86" fill="none" viewBox="0 0 83 86">
  <path fill="#fff" fill-rule="evenodd" d="m21.485 46.559.01.202a1.168 1.168 0 0 1-1.157 1.315c-2.06 0-3.918.742-5.24 2.01-1.266 1.212-2.049 2.92-2.049 4.925 0 1.907.78 3.639 2.037 4.897a6.92 6.92 0 0 0 4.898 2.037h31.508a6.92 6.92 0 0 0 4.898-2.037 6.917 6.917 0 0 0 2.037-4.897 6.92 6.92 0 0 0-2.037-4.898 6.92 6.92 0 0 0-4.898-2.037h-2.208v-.005a1.163 1.163 0 0 1-1.159-1.053 4.882 4.882 0 0 0-1.589-3.157 4.882 4.882 0 0 0-3.294-1.27 4.88 4.88 0 0 0-.844.073 4.787 4.787 0 0 0-.745.187 1.164 1.164 0 0 1-1.52-.592 9.798 9.798 0 0 0-3.609-4.19 9.712 9.712 0 0 0-5.287-1.553 9.72 9.72 0 0 0-6.895 2.857 9.722 9.722 0 0 0-2.857 6.896v.29Zm46.262-27.89c5.273 3.298 9.028 6.677 11.49 10.808.147.246.289.494.426.743.1.162.202.323.303.484l-.05-.005c2.04 3.945 2.974 8.532 2.974 14.285 0 11.322-4.59 21.572-12.01 28.992-7.419 7.419-17.67 12.008-28.99 12.008-11.322 0-21.572-4.589-28.992-12.008C5.478 66.556.89 56.306.89 44.984s4.587-21.571 12.008-28.99c7.418-7.42 17.67-12.01 28.992-12.01a1.168 1.168 0 0 1 0 2.334c-10.679 0-20.345 4.329-27.341 11.325C7.55 24.64 3.223 34.308 3.223 44.984c0 10.679 4.327 20.345 11.326 27.343 6.996 6.997 16.662 11.324 27.34 11.324 10.677 0 20.345-4.327 27.342-11.324 6.996-6.998 11.325-16.664 11.325-27.343 0-5.93-1.035-10.486-3.315-14.312a17.394 17.394 0 0 0-.266-.432c-5.637-1.077-11.121-3.266-15.214-6.434-2.156-1.67-3.918-3.612-5.091-5.8a13.247 13.247 0 0 1-1.58-7.19c.19-3.067 1.392-6.465 3.894-10.171 1.768 4.446 5.902 6.625 10.255 8.92 6.356 3.35 13.23 6.978 12.329 19.314a35.964 35.964 0 0 0-4.23-5.373c-2.29-2.404-4.95-4.546-7.984-6.426a1.163 1.163 0 0 0-1.607 1.589ZM60.63 53.453a9.275 9.275 0 0 0-2.591-4.989 9.234 9.234 0 0 0-6.547-2.722h-1.23a7.239 7.239 0 0 0-7.018-5.484c-.417 0-.831.038-1.239.108-.067.011-.133.024-.2.037a12.167 12.167 0 0 0-4.022-4.294 12.046 12.046 0 0 0-3.464-1.529 9.777 9.777 0 0 1 3.098-4.4 9.72 9.72 0 0 1 6.122-2.157 9.7 9.7 0 0 1 5.287 1.554 9.783 9.783 0 0 1 3.608 4.188c.26.58.939.843 1.522.592a4.902 4.902 0 0 1 1.588-.258c1.271 0 2.425.48 3.294 1.268.881.8 1.47 1.912 1.588 3.157a1.165 1.165 0 0 0 1.16 1.054v.004h2.208a6.91 6.91 0 0 1 4.897 2.039 6.914 6.914 0 0 1 2.037 4.897c0 1.905-.78 3.64-2.037 4.896a6.915 6.915 0 0 1-4.897 2.039H60.63Z" clip-rule="evenodd"/>
</svg>
