<svg xmlns="http://www.w3.org/2000/svg" width="83" height="83" fill="none" viewBox="0 0 83 83">
  <path fill="#fff" fill-rule="evenodd" d="M69.533 71.235v2.133c0 .777.635 1.413 1.413 1.413.779 0 1.414-.636 1.414-1.413v-5.639c0-.777-.63-1.413-1.408-1.413l-5.655-.017a1.414 1.414 0 1 0-.012 2.827l2.356.006C60.785 75.694 51.489 79.73 41.256 79.73c-21.065 0-38.172-17.108-38.172-38.173a1.42 1.42 0 0 0-1.415-1.415c-.777 0-1.413.637-1.413 1.415 0 22.627 18.374 41 41 41 10.957 0 20.918-4.306 28.277-11.322Zm-48.07-19.782v8.483c0 .783.63 1.415 1.413 1.415h46.657a1.41 1.41 0 0 0 1.413-1.415V33.073a1.41 1.41 0 0 0-1.413-1.413H61.05v-8.483a1.41 1.41 0 0 0-1.415-1.414H13.021a1.41 1.41 0 0 0-1.414 1.414V50.04a1.41 1.41 0 0 0 1.414 1.413h8.442Zm2.827 7.069h2.404a3.188 3.188 0 0 0-.884-1.715 3.23 3.23 0 0 0-1.52-.848v2.563Zm15.723-7.07H24.29v1.638a6.026 6.026 0 0 1 5.254 5.432H63.1a6.01 6.01 0 0 1 5.02-5.396V39.647a6.023 6.023 0 0 1-3.287-1.679 6.044 6.044 0 0 1-1.709-3.48H61.05V50.04a1.41 1.41 0 0 1-1.415 1.413h-6.992a7.714 7.714 0 0 1-6.315 3.28 7.71 7.71 0 0 1-6.315-3.28Zm28.105 4.572a3.166 3.166 0 0 0-1.284.783 3.206 3.206 0 0 0-.89 1.715h2.174v-2.498Zm-19.734-4.571h-4.112a4.874 4.874 0 0 0 4.112 0Zm-33.949-2.827h2.197a3.196 3.196 0 0 0-2.197-2.693v2.693Zm38.626-24.034h-33.66a6.041 6.041 0 0 1-1.684 3.286 6.016 6.016 0 0 1-3.281 1.68v13.477a5.986 5.986 0 0 1 3.28 1.684 6.026 6.026 0 0 1 1.756 3.907H52.99a6.02 6.02 0 0 1 5.232-5.621V29.587a6.062 6.062 0 0 1-3.482-1.709 6.033 6.033 0 0 1-1.679-3.287Zm5.161 21.29a3.147 3.147 0 0 0-1.48.836 3.162 3.162 0 0 0-.911 1.908h2.391V45.88Zm-21.991-17.31a7.728 7.728 0 0 0-7.723 7.722c0 4.26 3.459 7.724 7.723 7.724 4.259 0 7.717-3.464 7.717-7.724 0-4.258-3.458-7.722-7.717-7.722ZM12.98 11.878V9.746c0-.778-.636-1.415-1.413-1.415-.779 0-1.415.637-1.415 1.415v5.638c0 .777.63 1.413 1.409 1.413l5.654.018a1.414 1.414 0 0 0 .012-2.828l-2.356-.006C21.729 7.42 31.024 3.383 41.257 3.383c21.066 0 38.173 17.107 38.173 38.174a1.42 1.42 0 0 0 1.414 1.414c.778 0 1.413-.637 1.413-1.414 0-22.628-18.373-41.001-41-41.001C30.3.556 20.338 4.863 12.98 11.878ZM36.23 31.4a4.898 4.898 0 0 1 4.891 4.895 4.895 4.895 0 0 1-4.89 4.897 4.896 4.896 0 0 1 0-9.792Zm29.768 3.088c.135.554.424 1.065.836 1.478.365.365.801.63 1.284.783v-2.261h-2.12Zm-10.039-9.896c.154.481.419.917.784 1.282.412.413.925.702 1.48.837v-2.12h-2.264Zm-41.524 0v2.067a3.199 3.199 0 0 0 2.068-2.067h-2.068Z" clip-rule="evenodd"/>
</svg>
