<svg xmlns="http://www.w3.org/2000/svg" width="83" height="83" fill="none" viewBox="0 0 83 83">
  <path fill="#fff" d="M58.816 37.349h-1.602a15.493 15.493 0 0 0-1.344-3.203l1.152-1.153c.577-.576.897-1.473.833-2.307a3.463 3.463 0 0 0-1.024-2.241l-1.473-1.474c-1.282-1.281-3.332-1.346-4.549-.128l-1.154 1.152a14.118 14.118 0 0 0-3.203-1.344v-1.666c0-1.73-1.473-3.139-3.331-3.139h-2.05c-1.858 0-3.331 1.41-3.331 3.139v1.666c-1.089.32-2.179.768-3.203 1.344l-1.153-1.152c-1.217-1.218-3.268-1.153-4.548.193l-1.473 1.473c-.579.64-.962 1.409-1.026 2.241a2.952 2.952 0 0 0 .832 2.308l1.153 1.153a15.456 15.456 0 0 0-1.344 3.202h-1.602c-1.73 0-3.076 1.473-3.076 3.331v2.05c0 1.858 1.41 3.331 3.076 3.331h1.793c.32 1.09.77 2.179 1.346 3.205l-1.152 1.152c-.579.577-.899 1.474-.835 2.306a3.47 3.47 0 0 0 1.026 2.243l1.473 1.473c1.282 1.28 3.332 1.345 4.549.192l1.153-1.153c1.025.576 2.05 1.026 3.202 1.344v1.667c0 1.73 1.475 3.14 3.332 3.14h1.922c1.858 0 3.331-1.41 3.331-3.14v-1.667a15.364 15.364 0 0 0 3.203-1.344l1.153 1.153c1.217 1.217 3.268 1.153 4.548-.192l1.474-1.473c.576-.64.96-1.41 1.025-2.243a2.947 2.947 0 0 0-.832-2.306l-1.153-1.152a15.47 15.47 0 0 0 1.344-3.205h1.602c1.73 0 3.076-1.473 3.076-3.331v-2.05c-.065-1.922-1.41-3.395-3.14-3.395Zm.576 5.38c0 .45-.32.77-.576.77H56.19c-.576 0-1.09.448-1.217 1.026a13.156 13.156 0 0 1-1.73 4.29 1.269 1.269 0 0 0 .192 1.603l1.858 1.858c.065.064.065.256.065.32 0 .192-.13.384-.258.577l-1.473 1.473c-.32.32-.768.32-.962.192L50.81 52.98a1.271 1.271 0 0 0-1.602-.192c-1.282.832-2.755 1.409-4.228 1.794a1.31 1.31 0 0 0-1.026 1.281v2.626c0 .256-.32.577-.768.577h-2.05c-.449 0-.77-.32-.77-.577V55.8c0-.577-.447-1.153-1.023-1.282-1.538-.32-2.947-.96-4.228-1.793a1.304 1.304 0 0 0-.706-.192c-.32 0-.64.129-.897.385l-1.858 1.856c-.191.194-.64.194-.96-.191l-1.474-1.474a.78.78 0 0 1-.256-.576c0-.129 0-.256.129-.385l1.858-1.858a1.269 1.269 0 0 0 .191-1.6c-.768-1.218-1.408-2.628-1.729-4.164-.129-.578-.64-1.026-1.217-1.026h-2.628c-.256 0-.576-.32-.576-.77v-2.05c0-.447.32-.767.576-.767h2.628c.576 0 1.088-.45 1.217-1.026.32-1.537.897-2.946 1.73-4.29a1.27 1.27 0 0 0-.192-1.603l-1.858-1.858c-.13-.129-.13-.256-.13-.385 0-.191.13-.383.257-.576l1.473-1.473c.32-.32.705-.385.961-.192l1.858 1.858c.45.448 1.089.512 1.603.192 1.281-.833 2.755-1.41 4.228-1.794a1.31 1.31 0 0 0 1.024-1.282v-2.626c0-.256.32-.576.77-.576h2.05c.447 0 .767.32.767.576v2.755c0 .577.45 1.153 1.026 1.28 1.537.32 2.946.897 4.228 1.794a1.27 1.27 0 0 0 1.602-.192l1.856-1.858c.194-.191.641-.127.962.194l1.473 1.473c.193.191.258.383.258.576 0 .127 0 .256-.13.385l-1.857 1.856a1.271 1.271 0 0 0-.192 1.602 13.165 13.165 0 0 1 1.73 4.293c.128.577.64 1.024 1.217 1.024h2.626c.256 0 .576.32.576.77v1.92h.064Z"/>
  <path fill="#fff" d="M42.16 34.017c-4.229 0-7.623 3.46-7.623 7.689 0 4.228 3.394 7.686 7.623 7.686 4.228 0 7.623-3.458 7.623-7.686 0-4.229-3.395-7.689-7.623-7.689Zm0 12.814c-2.818 0-5.061-2.306-5.061-5.125 0-2.82 2.307-5.125 5.06-5.125 2.82 0 5.063 2.305 5.063 5.125 0 2.819-2.243 5.125-5.063 5.125ZM73.103 8.2c.383-1.537.383-3.137-.385-4.548-1.09-1.985-3.011-2.946-4.934-2.946-1.281 0-2.626.449-3.779 1.217-3.14 2.178-1.793 4.804-1.793 4.804.897 1.538 2.37 2.755 3.652 4.485-.32.256-.641.512-.897.832-.514-.32-1.155-.576-1.282-.704-.64-.32-1.282-.576-1.987-.77a6.202 6.202 0 0 0-1.856-.255c-.897 0-1.858.193-2.628.64-3.331 1.859-3.652 5.958-1.73 8.777 1.154 1.73 2.435 2.114 3.396 2.114.833 0 1.41-.32 1.41-.32 1.537-.897 2.754-2.37 4.42-3.652.257.32.513.641.833.897-.32.512-.576 1.153-.705 1.282-.32.64-.576 1.281-.768 1.985-.385 1.538-.385 3.14.383 4.549 1.09 1.986 3.011 2.946 4.933 2.946 1.282 0 2.627-.448 3.78-1.217 3.14-2.177 1.793-4.805 1.793-4.805-.897-1.537-2.37-2.755-3.65-4.484.319-.256.64-.512.897-.832.512.32 1.153.576 1.28.705.64.32 1.281.576 1.987.768.576.129 1.217.256 1.858.256.897 0 1.856-.192 2.626-.64 3.331-1.857 3.652-5.958 1.73-8.776-1.154-1.667-2.435-2.051-3.397-2.051-.832 0-1.408.32-1.408.32-1.538.897-2.755 2.37-4.42 3.652-.256-.32-.514-.641-.834-.897.32-.512.578-1.153.705-1.282.32-.703.576-1.344.77-2.05Zm-12.108 9.545c-.706.641-1.282 1.218-1.858 1.538h-.257c-.449 0-.896-.32-1.281-.96-.641-.96-.897-2.114-.641-3.14.193-.832.705-1.537 1.538-1.985a3.04 3.04 0 0 1 1.408-.32c.385 0 .77.063 1.218.192.449.128.897.32 1.473.576l.193.064c.192.065.32.192.448.256v1.859a17.55 17.55 0 0 0-2.241 1.92Zm3.458-12.17c-.127-.385 0-.897.897-1.538a4.03 4.03 0 0 1 2.37-.768c.834 0 1.987.256 2.755 1.6.514.897.32 2.05.193 2.628-.129.448-.32.897-.576 1.473l-.065.192c-.064.191-.193.32-.256.447h-1.858c-.64-.832-1.281-1.536-1.858-2.24-.64-.577-1.217-1.218-1.602-1.794Zm4.164 7.366c1.217 0 2.243.961 2.243 2.178 0 1.218-1.026 2.179-2.243 2.179-1.216 0-2.241-.961-2.241-2.179 0-1.217.96-2.178 2.24-2.178Zm4.1 11.723c.065.129.128.77-.96 1.538a4.02 4.02 0 0 1-2.37.77c-.833 0-1.986-.257-2.755-1.603-.512-.896-.32-2.05-.192-2.626.127-.449.32-.897.576-1.473l.065-.193c.063-.192.191-.32.256-.448h1.858c.64.833 1.28 1.538 1.856 2.241.77.641 1.282 1.218 1.667 1.794Zm3.46-12.17c.705-.642 1.281-1.154 1.857-1.538.065 0 .13-.065.256-.065.45 0 .834.32 1.282.961.641.962.897 2.114.641 3.14-.192.833-.705 1.538-1.538 1.985a3.06 3.06 0 0 1-1.409.32c-.384 0-.77-.064-1.217-.19-.449-.13-.897-.321-1.473-.577l-.193-.065c-.192-.064-.32-.193-.448-.256v-1.858c.897-.576 1.6-1.217 2.241-1.858ZM3.531 54.71c.192.512.704.897 1.217.897.128 0 .256 0 .384-.064.64-.192 1.025-.961.834-1.602-.065-.192-.13-.383-.194-.577-.191-.703-.896-1.024-1.6-.832-.64.192-1.026.961-.834 1.602.064.127.129.32.193.576ZM28.643 3.011c-.192.065-.384.13-.641.194-.64.256-1.024.96-.768 1.664a1.31 1.31 0 0 0 1.217.833c.127 0 .32 0 .448-.063l.576-.193c.64-.256 1.026-.96.77-1.665-.256-.705-.897-.961-1.602-.77ZM2.25 49.585c.127.641.64 1.024 1.217 1.024h.256c.705-.127 1.153-.832 1.025-1.473-.064-.192-.064-.385-.128-.576a1.248 1.248 0 0 0-1.474-1.024 1.25 1.25 0 0 0-1.025 1.473c0 .191.064.383.129.576ZM23.838 5.063c-.192.127-.385.191-.576.32-.577.319-.833 1.088-.512 1.73.256.447.64.703 1.152.703.192 0 .385-.063.577-.127.191-.065.385-.192.512-.256.64-.32.897-1.09.576-1.731-.319-.704-1.088-.96-1.729-.64Z"/>
  <path fill="#fff" d="M77.907 22.038c-.129-.192-.193-.385-.32-.576-.32-.641-1.153-.833-1.731-.512-.64.32-.832 1.152-.448 1.729.127.191.192.385.32.512.257.45.642.64 1.09.64.192 0 .384-.064.64-.127.576-.256.832-1.025.45-1.666ZM1.544 44.396c.065.705.577 1.217 1.282 1.217h.064c.704-.064 1.282-.705 1.218-1.408 0-.194 0-.385-.065-.641a1.33 1.33 0 0 0-1.346-1.218 1.332 1.332 0 0 0-1.217 1.345c.064.256.064.514.064.705Zm79.822-5.957h.129a1.204 1.204 0 0 0 1.088-1.41c0-.193-.064-.449-.064-.64a1.203 1.203 0 0 0-1.41-1.09 1.203 1.203 0 0 0-1.088 1.409c0 .193.063.385.063.64.129.577.64 1.09 1.282 1.09ZM79.06 31.84c.064.192.127.384.127.577.13.576.641.961 1.218.961.128 0 .193 0 .32-.064.705-.194 1.09-.897.897-1.538-.065-.192-.127-.45-.192-.64-.191-.706-.897-1.09-1.538-.898-.576.192-.96.897-.832 1.602ZM33.703 79.18c-.191-.062-.383-.062-.576-.126-.704-.194-1.345.256-1.538.96a1.23 1.23 0 0 0 .961 1.539c.194.062.45.127.641.127h.256c.577 0 1.09-.385 1.217-1.024.194-.641-.256-1.282-.96-1.475ZM1.609 38.503c0 .191 0 .447-.065.64-.064.704.514 1.345 1.218 1.345h.064c.64 0 1.217-.512 1.282-1.217 0-.192 0-.385.064-.64.063-.706-.45-1.345-1.154-1.345-.768 0-1.345.512-1.41 1.217Zm1.858-3.011c.576 0 1.153-.45 1.217-1.025.064-.256.127-.45.127-.641.129-.706-.32-1.345-.96-1.538-.705-.127-1.345.32-1.537.961-.065.192-.065.448-.129.641-.127.768.32 1.409 1.026 1.538.064 0 .191.064.256.064ZM20.956 9.738c.448-.447.576-1.153.192-1.665-.385-.576-1.218-.705-1.794-.32-.192.127-.385.256-.512.383l-.193.193c.896.192 1.666.641 2.307 1.41Zm12.747-8.136c-.192.065-.448.065-.64.13-.704.126-1.09.832-.96 1.537.127.576.64 1.024 1.217 1.024.064 0 .191 0 .256-.065.191-.062.385-.062.576-.127a1.228 1.228 0 0 0 .962-1.537c-.065-.641-.77-1.089-1.41-.962Zm47.919 38.695c-.704 0-1.28.576-1.28 1.28v.769c0 .704.576 1.282 1.28 1.282.705 0 1.281-.578 1.281-1.282v-.77c0-.703-.576-1.28-1.281-1.28Zm-.192 12.427c.065-.192.127-.448.192-.641.193-.704-.256-1.41-.897-1.536-.704-.194-1.344.256-1.538.897-.062.191-.127.383-.191.576-.192.704.191 1.409.897 1.6.128 0 .256.065.32.065.512 0 1.026-.385 1.217-.961Zm1.026-5.125c0-.192.063-.448.063-.641.064-.704-.384-1.345-1.089-1.41-.705-.064-1.346.386-1.409 1.091 0 .192-.064.383-.064.64-.129.704.385 1.345 1.088 1.472h.194c.639-.062 1.152-.512 1.217-1.152ZM48.31 79.63c-.191.065-.385.065-.576.065-.706.127-1.153.768-1.09 1.473.064.64.64 1.088 1.281 1.088h.194c.191 0 .447-.064.639-.127a1.25 1.25 0 0 0 1.025-1.473c-.128-.64-.768-1.09-1.473-1.026Zm-4.869.512h-.64c-.704 0-1.282.577-1.282 1.282 0 .705.578 1.281 1.281 1.281h.641c.705 0 1.282-.64 1.217-1.346a1.112 1.112 0 0 0-1.217-1.217ZM43.377.706c-.704 0-1.28.512-1.28 1.217a1.33 1.33 0 0 0 1.217 1.346h.704c.705 0 1.217-.514 1.281-1.217A1.33 1.33 0 0 0 44.082.706c-.256.064-.45 0-.705 0ZM38.572 79.95c-.192 0-.383-.064-.64-.064-.704-.064-1.345.45-1.41 1.153-.064.705.45 1.346 1.153 1.41.193 0 .45.063.641.063h.129c.64 0 1.217-.512 1.28-1.153.064-.703-.448-1.344-1.153-1.408Zm-.256-76.49h.129c.191 0 .383-.064.64-.064.704-.064 1.218-.705 1.154-1.409-.065-.705-.706-1.217-1.347-1.153-.191 0-.447.063-.64.063-.704.065-1.218.705-1.153 1.41 0 .642.576 1.154 1.217 1.154Zm14.67 1.345.576.193c.13.065.258.065.385.065.514 0 1.026-.32 1.217-.897.194-.706-.191-1.41-.832-1.602a7.414 7.414 0 0 0-.64-.192c-.706-.193-1.41.192-1.603.897-.192.639.193 1.344.897 1.536Zm4.677 72.07c-.193.065-.384.192-.576.256-.64.256-.961 1.026-.705 1.667.191.512.705.768 1.153.768.193 0 .32-.065.513-.127.192-.065.383-.194.577-.258a1.22 1.22 0 0 0 .64-1.665c-.193-.64-.96-.961-1.602-.64Zm-4.613 1.667-.576.191c-.705.192-1.088.897-.897 1.602.129.577.64.96 1.217.96.13 0 .256 0 .32-.063.192-.064.448-.129.642-.193.703-.192 1.088-.897.832-1.6-.256-.706-.832-1.09-1.538-.897ZM49.207 1.346c-.192-.064-.45-.064-.64-.129-.706-.127-1.345.385-1.474 1.09-.129.704.385 1.345 1.088 1.474.194 0 .385.064.577.127h.193c.576 0 1.153-.448 1.282-1.088.127-.706-.32-1.41-1.026-1.474ZM11.538 30.174c2.5 0 5.06-.897 6.919-2.69 3.523-3.396 4.357-8.264 2.243-12.941a29.83 29.83 0 0 0-1.538-2.882c-.576-.961-1.41-.897-1.602-.897-.32.063-1.025.256-1.344 1.28-.065.258-.13.385-.194.576-.064-.383-.064-1.024-.064-1.473v-.897c-.191-3.65-1.665-6.98-3.908-9.032-.768-.704-1.537-.512-1.793-.384s-.897.512-.897 1.6c0 .706-.32 2.885-3.267 6.92C3.275 13.26-.25 19.155 2.377 24.792c1.217 2.626 3.845 4.613 7.047 5.19.77.127 1.409.19 2.114.19Zm-5.51-4.676a7.085 7.085 0 0 1-1.28-1.794c-2.114-4.42.96-9.417 3.395-12.877 1.986-2.69 2.948-4.805 3.395-6.34 1.089 1.6 1.73 3.65 1.858 5.892v.641c-.064 1.282-.064 3.715 2.114 4.355.513.13 1.089.13 1.538-.191.32-.192.577-.385.833-.768.191.319.32.703.511 1.088 1.538 3.396 1.153 6.79-1.023 9.353.191-1.217 0-2.563-.577-3.843a39.737 39.737 0 0 0-.77-1.602c-.384-.64-1.024-.832-1.473-.77h-.129c-.191-1.92-.96-3.714-2.112-4.804-.45-.448-1.026-.577-1.602-.32-.193.192-.833.577-.833 1.537 0 .258-.128 1.282-1.537 3.268-1.282 1.857-2.755 4.485-2.308 7.175Zm2.755.448c-.703-1.538-.191-3.523 1.667-6.15.512-.704.897-1.41 1.217-2.05.127.449.256.96.256 1.474v.32c0 .704-.064 2.37 1.473 2.883.385.129.768.129 1.089-.065.64 1.667.32 3.267-.768 4.42-1.41 1.41-4.164.961-4.934-.832Zm20.244 51.826c-.064 0-.064 0-.129-.064-.639.513-1.408.834-2.176.897-.065.576.256 1.09.832 1.281.192.065.385.13.64.256.128.065.321.065.448.065.514 0 1.026-.32 1.218-.833.193-.576-.127-1.346-.833-1.602Zm-1.473-2.242c.385-.64.127-1.41-.45-1.73l-1.984-1.153 1.922-.191c.704-.065 1.217-.706 1.153-1.41-.064-.705-.705-1.218-1.346-1.154l-5.508.45-3.973-2.37 3.973-2.37 5.508.447h.129c.64 0 1.217-.512 1.281-1.153.063-.705-.449-1.346-1.154-1.409l-1.921-.193 1.794-1.088c.576-.385.832-1.153.447-1.73-.383-.64-1.153-.834-1.729-.449l-1.985 1.153.703-1.794c.256-.64-.062-1.409-.703-1.665s-1.41.063-1.667.704l-1.985 4.869-4.421 2.755v-4.74l3.524-4.357c.448-.577.383-1.345-.193-1.794-.512-.447-1.345-.385-1.794.193l-1.537 1.921v-2.755c0-.703-.577-1.28-1.28-1.28-.706 0-1.282.577-1.282 1.28v2.755l-1.538-1.92c-.447-.579-1.217-.641-1.793-.194-.512.45-.641 1.282-.192 1.794l3.523 4.357v4.1l-4.164-2.5-1.793-4.42c-.256-.64-1.026-.96-1.667-.705-.64.258-.961 1.026-.704 1.667l.512 1.344-1.217-.703c-.576-.385-1.409-.13-1.729.447-.385.64-.129 1.41.448 1.731l1.729 1.024-2.433.193c-.705.063-1.217.704-1.155 1.41.065.64.641 1.152 1.282 1.152h.129l5.893-.512h.064l4.037 2.434-3.972 2.37-5.51-.449c-.705-.064-1.346.45-1.346 1.153-.063.705.45 1.346 1.154 1.41l1.921.192-1.985 1.09c-.576.383-.832 1.153-.45 1.73.257.383.642.64 1.09.64.192 0 .448-.064.642-.193l2.176-1.28-.703 1.794c-.256.639.063 1.409.703 1.665.13.064.32.064.45.064.512 0 .961-.32 1.153-.77l1.985-4.867 3.46-1.987v4.357l-3.523 4.355c-.45.577-.385 1.346.192 1.794.512.45 1.346.385 1.793-.192l1.538-1.922v2.499c0 .705.576 1.282 1.282 1.282.703 0 1.28-.577 1.28-1.282v-2.499l1.537 1.922c.256.32.641.448.962.448.255 0 .576-.063.832-.32.514-.448.64-1.28.193-1.794l-3.524-4.355v-4.934l4.357 2.628 1.985 4.867c.193.514.705.77 1.154.77.128 0 .32 0 .448-.064.64-.256.961-1.026.705-1.665l-.705-1.794 2.178 1.28c.192.129.448.193.641.193.448.063.897-.193 1.153-.576Zm33.441 1.09c.191.32.447.511.768.576-.192-.706-.383-1.474-.448-2.243-.45.449-.64 1.154-.32 1.666Zm18.706-18.899c.063-.193.192-.384.256-.576.256-.64-.064-1.41-.705-1.667-.577-.256-1.218 0-1.538.45.32.768.77 1.665 1.282 2.497.256-.127.576-.383.705-.704Zm-4.869-2.434c-.256-.897-.512-2.05-1.666-2.05-1.153 0-1.41 1.153-1.665 1.921-.641 2.307-1.987 4.549-3.332 6.983-2.243 3.908-4.613 8.007-4.228 12.556.32 4.164 3.46 7.239 7.944 7.88.512.064 1.024.129 1.538.129 3.523 0 7.366-1.603 8.904-5.575 2.05-5.38-1.088-10.377-3.78-14.734-1.665-2.499-3.139-4.804-3.715-7.11Zm5.06 20.947c-1.217 3.205-4.868 4.229-7.686 3.844-2.628-.383-5.51-2.05-5.766-5.573-.32-3.716 1.858-7.43 3.908-11.018 1.024-1.73 2.05-3.524 2.817-5.382.835 1.922 1.987 3.845 3.14 5.638 2.626 4.291 5.125 8.263 3.588 12.491Z"/>
  <path fill="#fff" d="M73.935 68.163a1.315 1.315 0 0 0-.385 1.794s1.73 2.882.77 5.253c-.258.64.063 1.41.704 1.665.128.065.32.13.512.13.513 0 .96-.321 1.154-.77 1.473-3.652-.897-7.431-.961-7.56-.385-.704-1.217-.897-1.794-.512ZM59.2 4.422c-.192-.065-.384-.194-.576-.256-.64-.258-1.41 0-1.666.639-.256.64 0 1.41.64 1.666.192.065.386.192.577.256.194.065.32.13.512.13.32 0 .578-.13.834-.321-.129-.577-.129-1.282-.064-1.987-.129 0-.192-.063-.256-.127ZM77.779 27.74c.191.513.705.833 1.217.833.129 0 .32 0 .45-.064.638-.256.959-1.026.703-1.666-.065-.192-.127-.384-.256-.641-.256-.64-1.026-.96-1.665-.704a1 1 0 0 0-.514.383c-.064.32-.127.706-.256 1.09 0 .065.065.128.065.256.064.13.191.32.256.512Z"/>
</svg>
