<svg xmlns="http://www.w3.org/2000/svg" width="83" height="83" fill="none" viewBox="0 0 83 83">
  <path fill="#fff" fill-rule="evenodd" d="M64.854 48.486c-.164 0-.33-.035-.481-.099l-2.033-.85a1.25 1.25 0 0 1-.67-1.627 1.25 1.25 0 0 1 1.628-.668l2.033.85c.633.268.934 1 .67 1.628-.19.465-.645.766-1.147.766Zm-23.57-33.078a1.247 1.247 0 0 1-1.247-1.247v-2.205a1.247 1.247 0 1 1 2.492 0v2.205a1.249 1.249 0 0 1-1.245 1.247Zm8.915 1.775c-.166 0-.33-.034-.479-.096a1.25 1.25 0 0 1-.667-1.63l.852-2.035c.266-.63.997-.932 1.625-.668.633.265.932 1 .67 1.63l-.852 2.034a1.25 1.25 0 0 1-1.149.765Zm7.558 5.048a1.246 1.246 0 0 1-.876-2.13l1.574-1.56a1.249 1.249 0 0 1 1.761.008 1.243 1.243 0 0 1-.008 1.761l-1.572 1.559a1.246 1.246 0 0 1-.879.362Zm5.064 7.562a1.246 1.246 0 0 1-.477-2.398l2.035-.835a1.25 1.25 0 0 1 1.628.675 1.247 1.247 0 0 1-.68 1.624l-2.035.835c-.148.064-.31.099-.471.099Zm-30.454-12.61c-.502 0-.953-.303-1.147-.765l-.85-2.034a1.248 1.248 0 0 1 .668-1.63 1.247 1.247 0 0 1 1.627.668l.852 2.035a1.248 1.248 0 0 1-1.15 1.726Zm-7.56 5.048c-.33 0-.643-.13-.877-.363l-1.572-1.558a1.245 1.245 0 0 1 1.755-1.77l1.572 1.561c.487.484.494 1.272.006 1.761a1.24 1.24 0 0 1-.884.369Zm-5.064 7.562a1.29 1.29 0 0 1-.473-.094l-2.034-.838a1.248 1.248 0 0 1-.68-1.624 1.248 1.248 0 0 1 1.629-.675l2.033.835c.633.262.938.99.678 1.624a1.25 1.25 0 0 1-1.153.772Zm47.06 8.928h-2.207a1.246 1.246 0 1 1 0-2.492h2.208a1.246 1.246 0 0 1 0 2.492Zm-48.833 0h-2.208a1.244 1.244 0 0 1-1.245-1.245c0-.69.557-1.248 1.245-1.248h2.208c.69 0 1.242.557 1.242 1.247 0 .686-.552 1.245-1.242 1.245Zm-.258 9.765c-.502 0-.957-.301-1.15-.766a1.25 1.25 0 0 1 .668-1.63l2.036-.852a1.242 1.242 0 0 1 1.626.67 1.242 1.242 0 0 1-.668 1.625l-2.035.852c-.152.068-.314.1-.477.1Zm31.58-15.665v9.307h.4a4.4 4.4 0 0 0 4.396-4.395v-.518a4.4 4.4 0 0 0-4.397-4.394h-.399Z" clip-rule="evenodd"/>
  <path fill="#fff" fill-rule="evenodd" d="M28.165 23.62c-3.835 3.636-5.949 8.554-5.949 13.837a19.07 19.07 0 0 0 6.336 14.186c2.031 1.82 3.223 4.376 3.297 7.056h18.858c.025-2.666 1.155-5.168 3.106-6.874a19.001 19.001 0 0 0 6.518-14.913c-.276-9.857-8.195-17.982-18.021-18.494-.352-.018-.7-.028-1.049-.028a18.894 18.894 0 0 0-13.096 5.23ZM40.15 36.746h4.468a.728.728 0 1 1 0 1.458H40.15v3.923h4.468a.728.728 0 1 1 0 1.458h-5.195a.726.726 0 0 1-.727-.73V32.093c0-.401.323-.729.727-.729h5.192a.728.728 0 1 1 0 1.458H40.15v3.926Zm9.542-5.38a5.855 5.855 0 0 1 5.85 5.848v.518a5.854 5.854 0 0 1-5.85 5.85h-1.125a.727.727 0 0 1-.728-.728V32.092c0-.401.323-.729.728-.729l1.125.004Zm-18.704 10.76h4.466a.728.728 0 1 1 0 1.458h-5.192a.726.726 0 0 1-.727-.73V32.093a.727.727 0 1 1 1.456 0l-.003 10.034Zm15.474 26.629h-10.36a5.242 5.242 0 0 0 5.182 4.505 5.236 5.236 0 0 0 5.178-4.505Zm4.251-4.298H31.855v.528a2.32 2.32 0 0 0 2.317 2.316H48.41c1.27 0 2.303-1.04 2.303-2.316v-.528ZM31.855 60.16h18.858v2.843H31.855V60.16Z" clip-rule="evenodd"/>
  <path fill="#fff" d="M41.283.984c11.315 0 21.566 4.593 28.992 12.008 7.416 7.415 12.008 17.666 12.008 28.992 0 11.317-4.592 21.568-12.008 28.994-7.415 7.414-17.666 12.006-28.992 12.006-11.317 0-21.568-4.592-28.994-12.006C4.873 63.562.283 53.314.283 41.984c0-11.316 4.59-21.566 12.006-28.992A40.827 40.827 0 0 1 41.283.985ZM68.975 14.28C61.887 7.192 52.095 2.811 41.283 2.811c-10.826.002-20.618 4.38-27.705 11.468-7.088 7.09-11.47 16.882-11.47 27.695 0 10.812 4.382 20.605 11.47 27.692 7.087 7.088 16.879 11.47 27.692 11.47 10.81 0 20.605-4.382 27.691-11.47 7.086-7.087 11.47-16.88 11.47-27.692.012-10.813-4.369-20.605-11.456-27.695Z"/>
</svg>
