<svg xmlns="http://www.w3.org/2000/svg" xmlns:xlink="http://www.w3.org/1999/xlink" width="500" zoomAndPan="magnify" viewBox="0 0 375 374.999991" height="500" preserveAspectRatio="xMidYMid meet" version="1.0"><defs><clipPath id="39ce916bcd"><path d="M 84.265625 71.585938 L 280.765625 71.585938 L 280.765625 276.335938 L 84.265625 276.335938 Z M 84.265625 71.585938 " clip-rule="nonzero"/></clipPath></defs><g clip-path="url(#39ce916bcd)"><path fill="#ffffff" d="M 133.628906 181.726562 C 133.632812 181.835938 133.640625 182 133.652344 182.210938 C 133.667969 182.328125 133.675781 182.445312 133.675781 182.566406 C 133.675781 184.109375 132.421875 185.363281 130.878906 185.363281 C 125.941406 185.363281 121.488281 187.140625 118.320312 190.179688 C 115.285156 193.085938 113.410156 197.179688 113.410156 201.984375 C 113.410156 206.554688 115.28125 210.707031 118.292969 213.722656 C 121.308594 216.734375 125.464844 218.605469 130.03125 218.605469 L 205.550781 218.605469 C 210.117188 218.605469 214.273438 216.734375 217.289062 213.722656 C 220.300781 210.707031 222.171875 206.554688 222.171875 201.984375 C 222.171875 197.417969 220.300781 193.261719 217.289062 190.246094 C 214.273438 187.234375 210.117188 185.363281 205.550781 185.363281 L 200.257812 185.363281 L 200.257812 185.351562 C 198.835938 185.355469 197.617188 184.273438 197.480469 182.828125 C 197.195312 179.839844 195.785156 177.175781 193.671875 175.261719 C 191.589844 173.371094 188.820312 172.21875 185.777344 172.21875 C 185.074219 172.21875 184.398438 172.277344 183.753906 172.390625 C 183.121094 172.5 182.523438 172.648438 181.96875 172.839844 C 180.574219 173.4375 178.949219 172.8125 178.324219 171.421875 C 176.460938 167.296875 173.441406 163.8125 169.675781 161.378906 C 166.027344 159.023438 161.679688 157.65625 157.003906 157.65625 C 150.550781 157.65625 144.703125 160.273438 140.476562 164.503906 C 136.246094 168.734375 133.628906 174.578125 133.628906 181.03125 Z M 244.511719 114.878906 C 257.148438 122.785156 266.148438 130.882812 272.050781 140.785156 C 272.402344 141.375 272.742188 141.96875 273.070312 142.566406 C 273.3125 142.953125 273.554688 143.339844 273.796875 143.726562 L 273.679688 143.714844 C 278.566406 153.167969 280.804688 164.164062 280.804688 177.953125 C 280.804688 205.089844 269.804688 229.65625 252.019531 247.441406 C 234.238281 265.222656 209.667969 276.222656 182.535156 276.222656 C 155.398438 276.222656 130.832031 265.222656 113.046875 247.441406 C 95.261719 229.65625 84.265625 205.089844 84.265625 177.953125 C 84.265625 150.816406 95.261719 126.25 113.046875 108.46875 C 130.828125 90.683594 155.398438 79.683594 182.535156 79.683594 C 184.078125 79.683594 185.332031 80.9375 185.332031 82.480469 C 185.332031 84.027344 184.078125 85.277344 182.535156 85.277344 C 156.941406 85.277344 133.773438 95.652344 117.003906 112.421875 C 100.230469 129.191406 89.859375 152.363281 89.859375 177.953125 C 89.859375 203.546875 100.230469 226.714844 117.003906 243.488281 C 133.773438 260.257812 156.941406 270.628906 182.535156 270.628906 C 208.125 270.628906 231.296875 260.257812 248.066406 243.488281 C 264.835938 226.714844 275.210938 203.546875 275.210938 177.953125 C 275.210938 163.738281 272.730469 152.820312 267.265625 143.648438 C 267.058594 143.300781 266.847656 142.957031 266.628906 142.613281 C 253.117188 140.03125 239.972656 134.785156 230.164062 127.191406 C 224.996094 123.1875 220.773438 118.535156 217.960938 113.289062 C 215.191406 108.132812 213.785156 102.375 214.171875 96.058594 C 214.628906 88.707031 217.511719 80.5625 223.507812 71.679688 C 227.746094 82.335938 237.652344 87.558594 248.085938 93.058594 C 263.320312 101.089844 279.796875 109.785156 277.636719 139.351562 C 274.683594 134.757812 271.304688 130.464844 267.5 126.472656 C 262.011719 120.710938 255.632812 115.578125 248.363281 111.070312 C 247.054688 110.261719 245.335938 110.667969 244.527344 111.976562 C 243.960938 112.894531 243.992188 114.011719 244.511719 114.878906 Z M 227.453125 198.25 C 226.660156 193.625 224.429688 189.480469 221.242188 186.292969 C 217.21875 182.265625 211.664062 179.769531 205.550781 179.769531 L 202.601562 179.769531 C 201.757812 176.382812 199.925781 173.394531 197.433594 171.128906 C 194.347656 168.332031 190.261719 166.625 185.78125 166.625 C 184.78125 166.625 183.789062 166.714844 182.8125 166.882812 C 182.652344 166.910156 182.492188 166.941406 182.332031 166.972656 C 180.011719 162.804688 176.691406 159.265625 172.691406 156.679688 C 170.167969 155.050781 167.371094 153.800781 164.390625 153.015625 C 165.839844 148.835938 168.441406 145.191406 171.816406 142.46875 C 175.824219 139.238281 180.925781 137.300781 186.488281 137.300781 C 191.164062 137.300781 195.515625 138.667969 199.160156 141.023438 C 202.925781 143.453125 205.945312 146.9375 207.808594 151.0625 C 208.433594 152.453125 210.058594 153.082031 211.457031 152.480469 C 212.007812 152.292969 212.605469 152.140625 213.238281 152.03125 C 213.882812 151.921875 214.558594 151.863281 215.261719 151.863281 C 218.308594 151.863281 221.074219 153.011719 223.15625 154.902344 C 225.269531 156.820312 226.679688 159.484375 226.964844 162.46875 C 227.101562 163.914062 228.320312 164.996094 229.742188 164.996094 L 229.742188 165.003906 L 235.035156 165.003906 C 239.601562 165.003906 243.757812 166.875 246.773438 169.890625 C 249.785156 172.902344 251.65625 177.058594 251.65625 181.628906 C 251.65625 186.195312 249.785156 190.351562 246.773438 193.363281 C 243.757812 196.378906 239.601562 198.25 235.035156 198.25 Z M 227.453125 198.25 " fill-opacity="1" fill-rule="evenodd"/></g></svg>