<svg xmlns="http://www.w3.org/2000/svg" xmlns:xlink="http://www.w3.org/1999/xlink" width="500" zoomAndPan="magnify" viewBox="0 0 375 374.999991" height="500" preserveAspectRatio="xMidYMid meet" version="1.0"><defs><clipPath id="0e1cb70bfd"><path d="M 80.058594 56.335938 L 296.808594 56.335938 L 296.808594 273.085938 L 80.058594 273.085938 Z M 80.058594 56.335938 " clip-rule="nonzero"/></clipPath></defs><g clip-path="url(#0e1cb70bfd)"><path fill="#ffffff" d="M 263.472656 243.457031 L 263.472656 249.09375 C 263.472656 251.148438 265.152344 252.828125 267.207031 252.828125 C 269.265625 252.828125 270.945312 251.148438 270.945312 249.09375 L 270.945312 234.191406 C 270.945312 232.136719 269.28125 230.457031 267.222656 230.457031 L 252.277344 230.410156 C 250.207031 230.410156 248.523438 232.074219 248.523438 234.128906 C 248.523438 236.199219 250.191406 237.882812 252.246094 237.882812 L 258.472656 237.898438 C 240.351562 255.242188 215.78125 265.910156 188.734375 265.910156 C 133.058594 265.910156 87.84375 220.691406 87.84375 165.015625 C 87.84375 162.960938 86.160156 161.277344 84.105469 161.277344 C 82.050781 161.277344 80.371094 162.960938 80.371094 165.015625 C 80.371094 224.820312 128.933594 273.382812 188.734375 273.382812 C 217.695312 273.382812 244.023438 262 263.472656 243.457031 Z M 136.421875 191.171875 L 136.421875 213.59375 C 136.421875 215.664062 138.085938 217.332031 140.15625 217.332031 L 263.472656 217.332031 C 265.542969 217.332031 267.207031 215.664062 267.207031 213.59375 L 267.207031 142.59375 C 267.207031 140.523438 265.542969 138.859375 263.472656 138.859375 L 241.050781 138.859375 L 241.050781 116.4375 C 241.050781 114.367188 239.386719 112.699219 237.3125 112.699219 L 114.109375 112.699219 C 112.039062 112.699219 110.371094 114.367188 110.371094 116.4375 L 110.371094 187.4375 C 110.371094 189.507812 112.039062 191.171875 114.109375 191.171875 Z M 143.894531 209.855469 L 150.246094 209.855469 C 149.96875 208.160156 149.140625 206.570312 147.910156 205.324219 C 146.789062 204.21875 145.40625 203.441406 143.894531 203.082031 Z M 185.449219 191.171875 L 143.894531 191.171875 L 143.894531 195.5 C 147.398438 195.9375 150.667969 197.523438 153.191406 200.046875 C 155.835938 202.679688 157.457031 206.167969 157.78125 209.855469 L 246.46875 209.855469 C 246.796875 206.167969 248.414062 202.679688 251.046875 200.046875 C 253.429688 197.664062 256.464844 196.125 259.734375 195.59375 L 259.734375 159.96875 C 256.464844 159.441406 253.429688 157.898438 251.046875 155.53125 C 248.554688 153.027344 246.984375 149.789062 246.53125 146.332031 L 241.050781 146.332031 L 241.050781 187.4375 C 241.050781 189.507812 239.386719 191.171875 237.3125 191.171875 L 218.832031 191.171875 C 215.128906 196.417969 209.039062 199.84375 202.140625 199.84375 C 195.246094 199.84375 189.140625 196.417969 185.449219 191.171875 Z M 259.734375 203.253906 C 258.457031 203.660156 257.304688 204.359375 256.339844 205.324219 C 255.09375 206.570312 254.285156 208.160156 253.988281 209.855469 L 259.734375 209.855469 Z M 207.574219 191.171875 L 196.707031 191.171875 C 198.359375 191.9375 200.195312 192.371094 202.140625 192.371094 C 204.074219 192.371094 205.925781 191.9375 207.574219 191.171875 Z M 117.847656 183.699219 L 123.652344 183.699219 C 123.453125 181.800781 122.59375 180.023438 121.242188 178.65625 C 120.273438 177.6875 119.109375 176.988281 117.847656 176.582031 Z M 219.9375 120.175781 L 130.972656 120.175781 C 130.441406 123.445312 128.886719 126.480469 126.519531 128.863281 C 124.152344 131.230469 121.101562 132.769531 117.847656 133.300781 L 117.847656 168.921875 C 121.101562 169.453125 124.152344 170.992188 126.519531 173.375 C 129.289062 176.132812 130.925781 179.820312 131.160156 183.699219 L 219.75 183.699219 C 219.96875 179.820312 221.621094 176.132812 224.375 173.375 C 226.882812 170.871094 230.121094 169.296875 233.578125 168.84375 L 233.578125 133.378906 C 230.121094 132.925781 226.882812 131.351562 224.375 128.863281 C 222.007812 126.480469 220.46875 123.445312 219.9375 120.175781 Z M 233.578125 176.445312 C 232.113281 176.800781 230.757812 177.566406 229.667969 178.65625 C 228.300781 180.023438 227.457031 181.800781 227.257812 183.699219 L 233.578125 183.699219 Z M 175.453125 130.699219 C 164.183594 130.699219 155.042969 139.855469 155.042969 151.109375 C 155.042969 162.367188 164.183594 171.523438 175.453125 171.523438 C 186.710938 171.523438 195.851562 162.367188 195.851562 151.109375 C 195.851562 139.855469 186.710938 130.699219 175.453125 130.699219 Z M 114 86.574219 L 114 80.9375 C 114 78.882812 112.320312 77.199219 110.265625 77.199219 C 108.207031 77.199219 106.527344 78.882812 106.527344 80.9375 L 106.527344 95.839844 C 106.527344 97.894531 108.191406 99.574219 110.25 99.574219 L 125.195312 99.621094 C 127.265625 99.621094 128.949219 97.957031 128.949219 95.898438 C 128.949219 93.828125 127.28125 92.148438 125.226562 92.148438 L 119 92.132812 C 137.121094 74.789062 161.691406 64.121094 188.734375 64.121094 C 244.414062 64.121094 289.628906 109.335938 289.628906 165.015625 C 289.628906 167.070312 291.3125 168.753906 293.367188 168.753906 C 295.421875 168.753906 297.101562 167.070312 297.101562 165.015625 C 297.101562 105.210938 248.539062 56.648438 188.734375 56.648438 C 159.777344 56.648438 133.449219 68.03125 114 86.574219 Z M 175.453125 138.171875 C 182.585938 138.171875 188.378906 143.980469 188.378906 151.109375 C 188.378906 158.257812 182.585938 164.050781 175.453125 164.050781 C 168.308594 164.050781 162.515625 158.257812 162.515625 151.109375 C 162.515625 143.980469 168.308594 138.171875 175.453125 138.171875 Z M 254.128906 146.332031 C 254.488281 147.796875 255.25 149.148438 256.339844 150.238281 C 257.304688 151.203125 258.457031 151.90625 259.734375 152.308594 L 259.734375 146.332031 Z M 227.597656 120.175781 C 228.003906 121.449219 228.703125 122.601562 229.667969 123.566406 C 230.757812 124.65625 232.113281 125.421875 233.578125 125.777344 L 233.578125 120.175781 Z M 117.847656 120.175781 L 117.847656 125.640625 C 119.109375 125.234375 120.273438 124.535156 121.242188 123.566406 C 122.191406 122.601562 122.90625 121.449219 123.3125 120.175781 Z M 117.847656 120.175781 " fill-opacity="1" fill-rule="evenodd"/></g></svg>