<svg xmlns="http://www.w3.org/2000/svg" xmlns:xlink="http://www.w3.org/1999/xlink" width="500" zoomAndPan="magnify" viewBox="0 0 375 374.999991" height="500" preserveAspectRatio="xMidYMid meet" version="1.0"><defs><clipPath id="856be6941a"><path d="M 93.589844 66.039062 L 288.589844 66.039062 L 288.589844 261.039062 L 93.589844 261.039062 Z M 93.589844 66.039062 " clip-rule="nonzero"/></clipPath></defs><g clip-path="url(#856be6941a)"><path fill="#ffffff" d="M 191.171875 66.011719 C 137.367188 66.011719 93.589844 109.789062 93.589844 163.621094 C 93.589844 191.460938 105.324219 216.585938 124.082031 234.394531 L 124.082031 234.503906 L 125.058594 235.398438 C 132.1875 241.984375 140.183594 247.378906 148.75 251.5 C 148.886719 251.582031 149.046875 251.632812 149.183594 251.714844 C 150.402344 252.285156 151.625 252.855469 152.871094 253.398438 C 153.167969 253.53125 153.464844 253.640625 153.765625 253.777344 C 154.847656 254.238281 155.960938 254.671875 157.097656 255.078125 C 157.53125 255.238281 157.9375 255.402344 158.371094 255.539062 C 159.375 255.890625 160.378906 256.242188 161.382812 256.566406 C 161.921875 256.730469 162.4375 256.894531 162.980469 257.054688 C 163.902344 257.328125 164.824219 257.597656 165.746094 257.84375 C 166.367188 258.003906 166.964844 258.167969 167.589844 258.328125 C 168.457031 258.546875 169.324219 258.738281 170.21875 258.925781 C 170.894531 259.0625 171.574219 259.222656 172.222656 259.359375 C 173.089844 259.523438 173.929688 259.683594 174.800781 259.820312 C 175.503906 259.929688 176.179688 260.066406 176.886719 260.171875 C 177.78125 260.308594 178.648438 260.417969 179.542969 260.527344 C 180.21875 260.605469 180.898438 260.6875 181.574219 260.769531 C 182.578125 260.878906 183.582031 260.933594 184.585938 260.988281 C 185.152344 261.011719 185.722656 261.066406 186.320312 261.121094 C 187.917969 261.203125 189.515625 261.230469 191.117188 261.230469 C 192.609375 261.230469 194.097656 261.175781 195.589844 261.121094 C 196.023438 261.09375 196.429688 261.066406 196.863281 261.039062 C 198.027344 260.960938 199.195312 260.878906 200.332031 260.769531 C 200.683594 260.742188 201.039062 260.714844 201.390625 260.660156 C 202.828125 260.5 204.261719 260.335938 205.699219 260.117188 C 206.023438 260.066406 206.378906 260.011719 206.703125 259.957031 C 207.839844 259.765625 208.980469 259.578125 210.117188 259.332031 C 210.523438 259.25 210.902344 259.171875 211.3125 259.089844 C 212.667969 258.789062 214.019531 258.492188 215.375 258.140625 C 215.429688 258.113281 215.484375 258.113281 215.539062 258.113281 C 217.003906 257.734375 218.441406 257.328125 219.847656 256.894531 C 220.09375 256.8125 220.335938 256.730469 220.609375 256.648438 C 221.855469 256.242188 223.074219 255.835938 224.292969 255.402344 C 224.484375 255.320312 224.675781 255.265625 224.863281 255.1875 C 226.300781 254.644531 227.738281 254.101562 229.148438 253.476562 C 230.554688 252.882812 231.964844 252.257812 233.347656 251.582031 C 233.402344 251.554688 233.484375 251.527344 233.539062 251.5 C 234.621094 250.984375 235.707031 250.414062 236.761719 249.847656 C 236.761719 249.847656 236.789062 249.847656 236.789062 249.820312 C 239.472656 248.410156 242.101562 246.863281 244.679688 245.183594 L 246.0625 244.289062 L 246.0625 244.234375 C 271.8125 226.671875 288.753906 197.097656 288.753906 163.621094 C 288.753906 109.816406 244.976562 66.011719 191.171875 66.011719 Z M 246.0625 236.78125 L 246.0625 139.171875 L 258.257812 139.171875 L 258.257812 114.777344 C 258.257812 109.734375 254.164062 105.613281 249.097656 105.613281 L 133.21875 105.613281 C 128.175781 105.613281 124.054688 109.707031 124.054688 114.777344 L 124.054688 225.75 C 108.929688 209.429688 99.660156 187.582031 99.660156 163.621094 C 99.660156 113.175781 140.699219 72.136719 191.144531 72.136719 C 241.589844 72.136719 282.652344 113.175781 282.652344 163.621094 C 282.652344 193.492188 268.289062 220.054688 246.0625 236.78125 Z M 217.925781 251.121094 C 216.757812 251.472656 215.59375 251.796875 214.429688 252.121094 C 214.238281 252.175781 214.046875 252.230469 213.859375 252.285156 C 212.53125 252.609375 211.203125 252.9375 209.875 253.207031 C 209.574219 253.261719 209.25 253.316406 208.953125 253.398438 C 207.894531 253.613281 206.8125 253.804688 205.726562 253.964844 C 205.375 254.019531 205.023438 254.074219 204.667969 254.128906 C 203.339844 254.316406 202.011719 254.507812 200.65625 254.644531 C 200.441406 254.671875 200.199219 254.671875 199.980469 254.699219 C 198.816406 254.804688 197.648438 254.886719 196.484375 254.96875 C 196.105469 254.996094 195.726562 255.023438 195.34375 255.023438 C 193.960938 255.078125 192.554688 255.132812 191.171875 255.132812 C 189.679688 255.132812 188.1875 255.078125 186.699219 255.023438 C 186.15625 254.996094 185.640625 254.941406 185.125 254.914062 C 184.175781 254.859375 183.230469 254.777344 182.308594 254.699219 C 181.683594 254.644531 181.058594 254.5625 180.4375 254.480469 C 179.597656 254.371094 178.757812 254.292969 177.941406 254.15625 C 177.292969 254.074219 176.640625 253.9375 176.019531 253.855469 C 175.207031 253.722656 174.417969 253.585938 173.605469 253.421875 C 172.984375 253.289062 172.359375 253.179688 171.734375 253.042969 C 170.921875 252.855469 170.082031 252.664062 169.269531 252.476562 C 168.699219 252.339844 168.128906 252.175781 167.535156 252.042969 C 166.667969 251.796875 165.773438 251.554688 164.90625 251.28125 C 164.417969 251.148438 163.929688 250.984375 163.441406 250.820312 C 162.464844 250.496094 161.488281 250.171875 160.515625 249.820312 C 160.160156 249.683594 159.78125 249.574219 159.429688 249.4375 C 158.265625 249.003906 157.125 248.542969 155.988281 248.082031 C 155.824219 248.003906 155.660156 247.949219 155.5 247.894531 C 146.335938 243.992188 137.773438 238.625 130.210938 231.820312 L 130.210938 114.777344 C 130.210938 113.09375 131.566406 111.714844 133.246094 111.714844 L 240.503906 111.714844 C 240.503906 111.738281 240.476562 111.792969 240.476562 111.820312 C 240.339844 112.226562 240.234375 112.660156 240.152344 113.09375 C 240.125 113.175781 240.125 113.257812 240.125 113.339844 C 240.015625 113.800781 239.960938 114.289062 239.960938 114.777344 L 239.960938 241.007812 C 235.789062 243.636719 231.421875 245.914062 226.925781 247.839844 C 226.816406 247.894531 226.707031 247.921875 226.597656 247.976562 C 223.996094 249.058594 221.339844 250.035156 218.65625 250.902344 C 218.441406 250.957031 218.167969 251.039062 217.925781 251.121094 Z M 246.0625 114.777344 C 246.0625 113.09375 247.417969 111.714844 249.125 111.714844 C 250.804688 111.714844 252.160156 113.066406 252.160156 114.777344 L 252.160156 133.074219 L 246.0625 133.074219 Z M 246.0625 114.777344 " fill-opacity="1" fill-rule="nonzero"/></g><path fill="#ffffff" d="M 210.957031 187.71875 L 213.125 185.550781 L 215.296875 183.382812 L 215.214844 183.300781 C 220.714844 176.875 223.996094 168.988281 224.621094 160.558594 L 224.753906 160.558594 L 224.753906 154.433594 L 224.621094 154.433594 C 223.128906 134.996094 207.570312 119.4375 188.164062 117.972656 L 188.164062 117.839844 L 182.035156 117.839844 L 182.035156 117.972656 C 161.597656 119.546875 145.441406 136.652344 145.441406 157.496094 C 145.441406 179.371094 163.222656 197.152344 185.097656 197.152344 C 194.667969 197.152344 203.722656 193.761719 210.878906 187.609375 Z M 185.070312 191.078125 C 166.585938 191.078125 151.515625 176.035156 151.515625 157.523438 C 151.515625 140.039062 164.933594 125.644531 182.007812 124.101562 L 182.007812 158.769531 L 206.539062 183.300781 C 200.523438 188.34375 193.015625 191.078125 185.070312 191.078125 Z M 218.492188 160.585938 C 217.898438 167.390625 215.242188 173.757812 210.878906 179.015625 L 192.445312 160.585938 Z M 188.136719 154.460938 L 188.136719 124.101562 C 204.207031 125.5625 217.03125 138.386719 218.492188 154.460938 Z M 188.136719 154.460938 " fill-opacity="1" fill-rule="nonzero"/><path fill="#ffffff" d="M 175.367188 143.5625 L 169.894531 140.824219 L 159.132812 162.375 L 168.726562 162.375 L 162.382812 175.085938 L 167.832031 177.824219 L 178.59375 156.277344 L 169 156.277344 Z M 175.367188 143.5625 " fill-opacity="1" fill-rule="nonzero"/><path fill="#ffffff" d="M 200.332031 203.277344 L 230.828125 203.277344 L 230.828125 209.375 L 200.332031 209.375 Z M 200.332031 203.277344 " fill-opacity="1" fill-rule="nonzero"/><path fill="#ffffff" d="M 200.332031 215.476562 L 212.53125 215.476562 L 212.53125 221.574219 L 200.332031 221.574219 Z M 200.332031 215.476562 " fill-opacity="1" fill-rule="nonzero"/><path fill="#ffffff" d="M 218.628906 215.476562 L 230.828125 215.476562 L 230.828125 221.574219 L 218.628906 221.574219 Z M 218.628906 215.476562 " fill-opacity="1" fill-rule="nonzero"/><path fill="#ffffff" d="M 200.332031 227.671875 L 224.726562 227.671875 L 224.726562 233.773438 L 200.332031 233.773438 Z M 200.332031 227.671875 " fill-opacity="1" fill-rule="nonzero"/><path fill="#ffffff" d="M 182.007812 203.277344 L 163.710938 203.277344 L 163.710938 209.375 L 157.613281 209.375 L 157.613281 194.117188 L 139.316406 194.117188 L 139.316406 233.773438 L 194.207031 233.773438 L 194.207031 215.476562 L 182.007812 215.476562 Z M 188.136719 227.671875 L 182.035156 227.671875 L 182.035156 221.574219 L 188.136719 221.574219 Z M 175.910156 215.476562 L 175.910156 227.671875 L 169.8125 227.671875 L 169.8125 209.375 L 175.910156 209.375 Z M 145.414062 200.214844 L 151.515625 200.214844 L 151.515625 227.671875 L 145.414062 227.671875 Z M 157.613281 215.476562 L 163.710938 215.476562 L 163.710938 227.671875 L 157.613281 227.671875 Z M 157.613281 215.476562 " fill-opacity="1" fill-rule="nonzero"/></svg>