<svg xmlns="http://www.w3.org/2000/svg" xmlns:xlink="http://www.w3.org/1999/xlink" width="500" zoomAndPan="magnify" viewBox="0 0 375 374.999991" height="500" preserveAspectRatio="xMidYMid meet" version="1.0"><defs><clipPath id="341a5b18bf"><path d="M 194 269 L 202 269 L 202 276.984375 L 194 276.984375 Z M 194 269 " clip-rule="nonzero"/></clipPath><clipPath id="19d528cc77"><path d="M 182 271 L 190 271 L 190 276.984375 L 182 276.984375 Z M 182 271 " clip-rule="nonzero"/></clipPath><clipPath id="bdc0b5b316"><path d="M 170 270 L 179 270 L 179 276.984375 L 170 276.984375 Z M 170 270 " clip-rule="nonzero"/></clipPath><clipPath id="7d25e1500b"><path d="M 86 207 L 151 207 L 151 276.984375 L 86 276.984375 Z M 86 207 " clip-rule="nonzero"/></clipPath><clipPath id="ade0cca84b"><path d="M 235 207 L 281 207 L 281 276.984375 L 235 276.984375 Z M 235 207 " clip-rule="nonzero"/></clipPath></defs><path fill="#ffffff" d="M 223.230469 169.851562 L 219.441406 169.851562 C 218.683594 167.277344 217.625 164.703125 216.261719 162.277344 L 218.988281 159.550781 C 220.351562 158.1875 221.109375 156.066406 220.957031 154.09375 C 220.804688 152.125 220.050781 150.308594 218.535156 148.792969 L 215.050781 145.308594 C 212.019531 142.277344 207.171875 142.125 204.292969 145.003906 L 201.5625 147.730469 C 199.140625 146.367188 196.714844 145.308594 193.988281 144.550781 L 193.988281 140.609375 C 193.988281 136.519531 190.503906 133.1875 186.109375 133.1875 L 181.261719 133.1875 C 176.867188 133.1875 173.382812 136.519531 173.382812 140.609375 L 173.382812 144.550781 C 170.808594 145.308594 168.230469 146.367188 165.808594 147.730469 L 163.082031 145.003906 C 160.203125 142.125 155.351562 142.277344 152.324219 145.460938 L 148.839844 148.945312 C 147.472656 150.460938 146.566406 152.277344 146.414062 154.246094 C 146.261719 156.367188 147.019531 158.339844 148.382812 159.703125 L 151.109375 162.429688 C 149.746094 164.851562 148.6875 167.429688 147.929688 170.003906 L 144.140625 170.003906 C 140.050781 170.003906 136.867188 173.488281 136.867188 177.882812 L 136.867188 182.730469 C 136.867188 187.125 140.203125 190.609375 144.140625 190.609375 L 148.382812 190.609375 C 149.140625 193.1875 150.203125 195.761719 151.566406 198.1875 L 148.839844 200.914062 C 147.472656 202.277344 146.714844 204.398438 146.867188 206.367188 C 147.019531 208.335938 147.777344 210.15625 149.292969 211.671875 L 152.777344 215.15625 C 155.808594 218.183594 160.65625 218.335938 163.535156 215.609375 L 166.261719 212.882812 C 168.6875 214.246094 171.109375 215.308594 173.835938 216.0625 L 173.835938 220.003906 C 173.835938 224.09375 177.324219 227.429688 181.714844 227.429688 L 186.261719 227.429688 C 190.65625 227.429688 194.140625 224.09375 194.140625 220.003906 L 194.140625 216.0625 C 196.714844 215.308594 199.292969 214.246094 201.714844 212.882812 L 204.441406 215.609375 C 207.320312 218.488281 212.171875 218.335938 215.199219 215.15625 L 218.683594 211.671875 C 220.046875 210.15625 220.957031 208.335938 221.109375 206.367188 C 221.261719 204.246094 220.503906 202.277344 219.140625 200.914062 L 216.414062 198.1875 C 217.777344 195.761719 218.835938 193.1875 219.59375 190.609375 L 223.382812 190.609375 C 227.472656 190.609375 230.65625 187.125 230.65625 182.730469 L 230.65625 177.882812 C 230.503906 173.335938 227.320312 169.851562 223.230469 169.851562 Z M 224.59375 182.578125 C 224.59375 183.640625 223.835938 184.398438 223.230469 184.398438 L 217.019531 184.398438 C 215.65625 184.398438 214.441406 185.457031 214.140625 186.824219 C 213.382812 190.457031 212.019531 193.792969 210.050781 196.972656 C 209.292969 198.1875 209.441406 199.699219 210.503906 200.761719 L 214.898438 205.15625 C 215.050781 205.308594 215.050781 205.761719 215.050781 205.914062 C 215.050781 206.367188 214.746094 206.820312 214.441406 207.277344 L 210.957031 210.761719 C 210.199219 211.519531 209.140625 211.519531 208.683594 211.214844 L 204.292969 206.820312 C 203.230469 205.761719 201.714844 205.609375 200.503906 206.367188 C 197.472656 208.335938 193.988281 209.699219 190.503906 210.609375 C 189.140625 210.914062 188.078125 212.125 188.078125 213.640625 L 188.078125 219.851562 C 188.078125 220.457031 187.320312 221.214844 186.261719 221.214844 L 181.414062 221.214844 C 180.351562 221.214844 179.59375 220.457031 179.59375 219.851562 L 179.59375 213.488281 C 179.59375 212.125 178.535156 210.761719 177.171875 210.457031 C 173.535156 209.699219 170.203125 208.1875 167.171875 206.214844 C 166.714844 205.914062 166.109375 205.761719 165.503906 205.761719 C 164.746094 205.761719 163.988281 206.066406 163.382812 206.671875 L 158.988281 211.0625 C 158.535156 211.519531 157.472656 211.519531 156.714844 210.609375 L 153.230469 207.125 C 152.777344 206.671875 152.625 206.214844 152.625 205.761719 C 152.625 205.457031 152.625 205.15625 152.929688 204.851562 L 157.324219 200.457031 C 158.382812 199.398438 158.535156 197.882812 157.777344 196.671875 C 155.960938 193.792969 154.445312 190.457031 153.6875 186.824219 C 153.382812 185.457031 152.171875 184.398438 150.808594 184.398438 L 144.59375 184.398438 C 143.988281 184.398438 143.230469 183.640625 143.230469 182.578125 L 143.230469 177.730469 C 143.230469 176.671875 143.988281 175.914062 144.59375 175.914062 L 150.808594 175.914062 C 152.171875 175.914062 153.382812 174.851562 153.6875 173.488281 C 154.445312 169.851562 155.808594 166.519531 157.777344 163.339844 C 158.535156 162.125 158.382812 160.609375 157.324219 159.550781 L 152.929688 155.15625 C 152.625 154.851562 152.625 154.550781 152.625 154.246094 C 152.625 153.792969 152.929688 153.339844 153.230469 152.882812 L 156.714844 149.398438 C 157.472656 148.640625 158.382812 148.488281 158.988281 148.945312 L 163.382812 153.339844 C 164.445312 154.398438 165.957031 154.550781 167.171875 153.792969 C 170.203125 151.824219 173.6875 150.460938 177.171875 149.550781 C 178.535156 149.246094 179.59375 148.035156 179.59375 146.519531 L 179.59375 140.308594 C 179.59375 139.703125 180.351562 138.945312 181.414062 138.945312 L 186.261719 138.945312 C 187.320312 138.945312 188.078125 139.703125 188.078125 140.308594 L 188.078125 146.824219 C 188.078125 148.1875 189.140625 149.550781 190.503906 149.851562 C 194.140625 150.609375 197.472656 151.972656 200.503906 154.09375 C 201.714844 154.851562 203.230469 154.703125 204.292969 153.640625 L 208.683594 149.246094 C 209.140625 148.792969 210.199219 148.945312 210.957031 149.703125 L 214.441406 153.1875 C 214.898438 153.640625 215.050781 154.09375 215.050781 154.550781 C 215.050781 154.851562 215.050781 155.15625 214.746094 155.460938 L 210.351562 159.851562 C 209.292969 160.914062 209.140625 162.429688 209.898438 163.640625 C 211.867188 166.824219 213.230469 170.15625 213.988281 173.792969 C 214.292969 175.15625 215.503906 176.214844 216.867188 176.214844 L 223.078125 176.214844 C 223.683594 176.214844 224.441406 176.972656 224.441406 178.035156 L 224.441406 182.578125 Z M 224.59375 182.578125 " fill-opacity="1" fill-rule="nonzero"/><path fill="#ffffff" d="M 183.835938 161.972656 C 173.835938 161.972656 165.808594 170.15625 165.808594 180.15625 C 165.808594 190.15625 173.835938 198.335938 183.835938 198.335938 C 193.835938 198.335938 201.867188 190.15625 201.867188 180.15625 C 201.867188 170.15625 193.835938 161.972656 183.835938 161.972656 Z M 183.835938 192.277344 C 177.171875 192.277344 171.867188 186.824219 171.867188 180.15625 C 171.867188 173.488281 177.324219 168.035156 183.835938 168.035156 C 190.503906 168.035156 195.808594 173.488281 195.808594 180.15625 C 195.808594 186.824219 190.503906 192.277344 183.835938 192.277344 Z M 183.835938 192.277344 " fill-opacity="1" fill-rule="nonzero"/><path fill="#ffffff" d="M 257.019531 100.914062 C 257.925781 97.277344 257.925781 93.492188 256.109375 90.15625 C 253.53125 85.460938 248.988281 83.1875 244.441406 83.1875 C 241.410156 83.1875 238.230469 84.25 235.503906 86.066406 C 228.078125 91.21875 231.261719 97.429688 231.261719 97.429688 C 233.382812 101.066406 236.867188 103.945312 239.898438 108.035156 C 239.140625 108.640625 238.382812 109.246094 237.777344 110.003906 C 236.5625 109.246094 235.046875 108.640625 234.746094 108.339844 C 233.230469 107.582031 231.714844 106.976562 230.046875 106.519531 C 228.535156 106.066406 227.167969 105.914062 225.65625 105.914062 C 223.535156 105.914062 221.261719 106.371094 219.441406 107.429688 C 211.5625 111.824219 210.804688 121.519531 215.351562 128.1875 C 218.078125 132.277344 221.109375 133.1875 223.382812 133.1875 C 225.351562 133.1875 226.714844 132.429688 226.714844 132.429688 C 230.351562 130.308594 233.230469 126.824219 237.167969 123.792969 C 237.777344 124.550781 238.382812 125.308594 239.140625 125.914062 C 238.382812 127.125 237.777344 128.640625 237.472656 128.945312 C 236.714844 130.460938 236.109375 131.976562 235.65625 133.640625 C 234.746094 137.277344 234.746094 141.066406 236.5625 144.398438 C 239.140625 149.097656 243.683594 151.367188 248.230469 151.367188 C 251.261719 151.367188 254.441406 150.308594 257.167969 148.488281 C 264.59375 143.339844 261.410156 137.125 261.410156 137.125 C 259.289062 133.488281 255.804688 130.609375 252.777344 126.519531 C 253.53125 125.914062 254.289062 125.308594 254.898438 124.550781 C 256.109375 125.308594 257.625 125.914062 257.925781 126.21875 C 259.441406 126.976562 260.957031 127.582031 262.625 128.035156 C 263.988281 128.339844 265.503906 128.640625 267.019531 128.640625 C 269.140625 128.640625 271.410156 128.1875 273.230469 127.125 C 281.109375 122.734375 281.867188 113.035156 277.320312 106.371094 C 274.59375 102.429688 271.5625 101.519531 269.289062 101.519531 C 267.320312 101.519531 265.957031 102.277344 265.957031 102.277344 C 262.320312 104.398438 259.441406 107.882812 255.503906 110.914062 C 254.898438 110.15625 254.289062 109.398438 253.53125 108.792969 C 254.289062 107.582031 254.898438 106.066406 255.199219 105.761719 C 255.957031 104.097656 256.5625 102.582031 257.019531 100.914062 Z M 228.382812 123.488281 C 226.714844 125.003906 225.351562 126.367188 223.988281 127.125 C 223.835938 127.125 223.535156 127.125 223.382812 127.125 C 222.320312 127.125 221.261719 126.367188 220.351562 124.855469 C 218.835938 122.582031 218.230469 119.855469 218.835938 117.429688 C 219.292969 115.460938 220.503906 113.792969 222.472656 112.734375 C 223.382812 112.277344 224.441406 111.976562 225.804688 111.976562 C 226.714844 111.976562 227.625 112.125 228.683594 112.429688 C 229.746094 112.734375 230.804688 113.1875 232.167969 113.792969 L 232.625 113.945312 C 233.078125 114.097656 233.382812 114.398438 233.683594 114.550781 C 233.683594 116.21875 233.683594 117.734375 233.683594 118.945312 C 231.5625 120.460938 229.898438 121.976562 228.382812 123.488281 Z M 236.5625 94.703125 C 236.261719 93.792969 236.5625 92.582031 238.683594 91.066406 C 240.351562 89.855469 242.320312 89.25 244.289062 89.25 C 246.261719 89.25 248.988281 89.855469 250.804688 93.035156 C 252.019531 95.15625 251.5625 97.882812 251.261719 99.25 C 250.957031 100.308594 250.503906 101.371094 249.898438 102.734375 L 249.746094 103.1875 C 249.59375 103.640625 249.289062 103.945312 249.140625 104.246094 C 247.777344 104.246094 246.109375 104.246094 244.746094 104.246094 C 243.230469 102.277344 241.714844 100.613281 240.351562 98.945312 C 238.835938 97.582031 237.472656 96.066406 236.5625 94.703125 Z M 246.410156 112.125 C 249.289062 112.125 251.714844 114.398438 251.714844 117.277344 C 251.714844 120.15625 249.289062 122.429688 246.410156 122.429688 C 243.535156 122.429688 241.109375 120.15625 241.109375 117.277344 C 241.109375 114.398438 243.382812 112.125 246.410156 112.125 Z M 256.109375 139.851562 C 256.261719 140.15625 256.410156 141.671875 253.835938 143.488281 C 252.167969 144.703125 250.199219 145.308594 248.230469 145.308594 C 246.261719 145.308594 243.535156 144.703125 241.714844 141.519531 C 240.503906 139.398438 240.957031 136.671875 241.261719 135.308594 C 241.5625 134.246094 242.019531 133.1875 242.625 131.824219 L 242.777344 131.367188 C 242.925781 130.914062 243.230469 130.609375 243.382812 130.308594 C 244.746094 130.308594 246.410156 130.308594 247.777344 130.308594 C 249.289062 132.277344 250.804688 133.945312 252.167969 135.609375 C 253.988281 137.125 255.199219 138.488281 256.109375 139.851562 Z M 264.289062 111.066406 C 265.957031 109.550781 267.320312 108.339844 268.683594 107.429688 C 268.835938 107.429688 268.988281 107.277344 269.289062 107.277344 C 270.351562 107.277344 271.261719 108.035156 272.320312 109.550781 C 273.835938 111.824219 274.441406 114.550781 273.835938 116.976562 C 273.382812 118.945312 272.167969 120.613281 270.199219 121.671875 C 269.289062 122.125 268.230469 122.429688 266.867188 122.429688 C 265.957031 122.429688 265.046875 122.277344 263.988281 121.976562 C 262.925781 121.671875 261.867188 121.21875 260.503906 120.613281 L 260.046875 120.460938 C 259.59375 120.308594 259.289062 120.003906 258.988281 119.855469 C 258.988281 118.1875 258.988281 116.671875 258.988281 115.460938 C 261.109375 114.097656 262.773438 112.582031 264.289062 111.066406 Z M 264.289062 111.066406 " fill-opacity="1" fill-rule="nonzero"/><path fill="#ffffff" d="M 92.476562 210.914062 C 92.929688 212.125 94.140625 213.035156 95.355469 213.035156 C 95.65625 213.035156 95.960938 213.035156 96.261719 212.882812 C 97.777344 212.429688 98.6875 210.609375 98.234375 209.09375 C 98.082031 208.640625 97.929688 208.1875 97.777344 207.730469 C 97.324219 206.066406 95.65625 205.308594 93.992188 205.761719 C 92.476562 206.214844 91.566406 208.035156 92.019531 209.550781 C 92.171875 209.851562 92.324219 210.308594 92.476562 210.914062 Z M 92.476562 210.914062 " fill-opacity="1" fill-rule="nonzero"/><path fill="#ffffff" d="M 151.867188 88.640625 C 151.414062 88.792969 150.960938 88.945312 150.351562 89.097656 C 148.839844 89.703125 147.929688 91.371094 148.535156 93.035156 C 148.988281 94.25 150.203125 95.003906 151.414062 95.003906 C 151.714844 95.003906 152.171875 95.003906 152.472656 94.855469 C 152.929688 94.703125 153.382812 94.550781 153.835938 94.398438 C 155.351562 93.792969 156.261719 92.128906 155.65625 90.460938 C 155.050781 88.792969 153.535156 88.1875 151.867188 88.640625 Z M 151.867188 88.640625 " fill-opacity="1" fill-rule="nonzero"/><path fill="#ffffff" d="M 89.445312 198.792969 C 89.746094 200.308594 90.960938 201.214844 92.324219 201.214844 C 92.476562 201.214844 92.777344 201.214844 92.929688 201.214844 C 94.597656 200.914062 95.65625 199.246094 95.355469 197.730469 C 95.203125 197.277344 95.203125 196.820312 95.050781 196.367188 C 94.746094 194.699219 93.234375 193.640625 91.566406 193.945312 C 89.898438 194.246094 88.839844 195.761719 89.140625 197.429688 C 89.140625 197.882812 89.292969 198.335938 89.445312 198.792969 Z M 89.445312 198.792969 " fill-opacity="1" fill-rule="nonzero"/><path fill="#ffffff" d="M 140.503906 93.492188 C 140.050781 93.792969 139.59375 93.945312 139.140625 94.25 C 137.777344 95.003906 137.171875 96.824219 137.929688 98.339844 C 138.535156 99.398438 139.445312 100.003906 140.65625 100.003906 C 141.109375 100.003906 141.566406 99.855469 142.019531 99.703125 C 142.472656 99.550781 142.929688 99.25 143.230469 99.097656 C 144.746094 98.339844 145.351562 96.519531 144.59375 95.003906 C 143.839844 93.339844 142.019531 92.734375 140.503906 93.492188 Z M 140.503906 93.492188 " fill-opacity="1" fill-rule="nonzero"/><path fill="#ffffff" d="M 268.382812 133.640625 C 268.078125 133.1875 267.925781 132.730469 267.625 132.277344 C 266.867188 130.761719 264.898438 130.308594 263.53125 131.066406 C 262.019531 131.824219 261.5625 133.792969 262.472656 135.15625 C 262.773438 135.609375 262.925781 136.066406 263.230469 136.367188 C 263.835938 137.429688 264.746094 137.882812 265.804688 137.882812 C 266.261719 137.882812 266.714844 137.730469 267.320312 137.582031 C 268.683594 136.976562 269.289062 135.15625 268.382812 133.640625 Z M 268.382812 133.640625 " fill-opacity="1" fill-rule="nonzero"/><path fill="#ffffff" d="M 87.777344 186.519531 C 87.929688 188.1875 89.140625 189.398438 90.808594 189.398438 C 90.808594 189.398438 90.960938 189.398438 90.960938 189.398438 C 92.625 189.246094 93.992188 187.730469 93.839844 186.066406 C 93.839844 185.609375 93.839844 185.15625 93.6875 184.550781 C 93.535156 182.882812 92.171875 181.671875 90.503906 181.671875 C 88.839844 181.824219 87.625 183.1875 87.625 184.851562 C 87.777344 185.457031 87.777344 186.066406 87.777344 186.519531 Z M 87.777344 186.519531 " fill-opacity="1" fill-rule="nonzero"/><path fill="#ffffff" d="M 276.5625 172.429688 C 276.714844 172.429688 276.867188 172.429688 276.867188 172.429688 C 278.53125 172.277344 279.746094 170.761719 279.441406 169.09375 C 279.441406 168.640625 279.289062 168.035156 279.289062 167.582031 C 279.140625 165.914062 277.625 164.703125 275.957031 165.003906 C 274.289062 165.15625 273.078125 166.671875 273.382812 168.335938 C 273.382812 168.792969 273.53125 169.246094 273.53125 169.851562 C 273.835938 171.214844 275.046875 172.429688 276.5625 172.429688 Z M 276.5625 172.429688 " fill-opacity="1" fill-rule="nonzero"/><path fill="#ffffff" d="M 271.109375 156.824219 C 271.261719 157.277344 271.410156 157.730469 271.410156 158.1875 C 271.714844 159.550781 272.925781 160.460938 274.289062 160.460938 C 274.59375 160.460938 274.746094 160.460938 275.046875 160.308594 C 276.714844 159.851562 277.625 158.1875 277.167969 156.671875 C 277.015625 156.21875 276.867188 155.609375 276.714844 155.15625 C 276.261719 153.488281 274.59375 152.582031 273.078125 153.035156 C 271.714844 153.488281 270.804688 155.15625 271.109375 156.824219 Z M 271.109375 156.824219 " fill-opacity="1" fill-rule="nonzero"/><path fill="#ffffff" d="M 163.835938 268.789062 C 163.382812 268.640625 162.929688 268.640625 162.472656 268.488281 C 160.808594 268.03125 159.292969 269.09375 158.835938 270.761719 C 158.382812 272.425781 159.445312 274.09375 161.109375 274.398438 C 161.566406 274.546875 162.171875 274.699219 162.625 274.699219 C 162.777344 274.699219 163.082031 274.699219 163.230469 274.699219 C 164.59375 274.699219 165.808594 273.789062 166.109375 272.277344 C 166.566406 270.761719 165.503906 269.246094 163.835938 268.789062 Z M 163.835938 268.789062 " fill-opacity="1" fill-rule="nonzero"/><path fill="#ffffff" d="M 87.929688 172.582031 C 87.929688 173.035156 87.929688 173.640625 87.777344 174.09375 C 87.625 175.761719 88.992188 177.277344 90.65625 177.277344 C 90.65625 177.277344 90.808594 177.277344 90.808594 177.277344 C 92.324219 177.277344 93.6875 176.066406 93.839844 174.398438 C 93.839844 173.945312 93.839844 173.488281 93.992188 172.882812 C 94.140625 171.214844 92.929688 169.703125 91.261719 169.703125 C 89.445312 169.703125 88.082031 170.914062 87.929688 172.582031 Z M 87.929688 172.582031 " fill-opacity="1" fill-rule="nonzero"/><path fill="#ffffff" d="M 92.324219 165.460938 C 93.6875 165.460938 95.050781 164.398438 95.203125 163.035156 C 95.355469 162.429688 95.503906 161.972656 95.503906 161.519531 C 95.808594 159.851562 94.746094 158.339844 93.234375 157.882812 C 91.566406 157.582031 90.050781 158.640625 89.597656 160.15625 C 89.445312 160.609375 89.445312 161.214844 89.292969 161.671875 C 88.992188 163.488281 90.050781 165.003906 91.71875 165.308594 C 91.871094 165.308594 92.171875 165.460938 92.324219 165.460938 Z M 92.324219 165.460938 " fill-opacity="1" fill-rule="nonzero"/><path fill="#ffffff" d="M 133.6875 104.550781 C 134.746094 103.492188 135.050781 101.824219 134.140625 100.613281 C 133.230469 99.25 131.261719 98.945312 129.898438 99.855469 C 129.445312 100.15625 128.988281 100.460938 128.6875 100.761719 C 128.535156 100.914062 128.382812 101.066406 128.230469 101.21875 C 130.351562 101.671875 132.171875 102.734375 133.6875 104.550781 Z M 133.6875 104.550781 " fill-opacity="1" fill-rule="nonzero"/><path fill="#ffffff" d="M 163.835938 85.308594 C 163.382812 85.460938 162.777344 85.460938 162.324219 85.613281 C 160.65625 85.914062 159.746094 87.582031 160.050781 89.25 C 160.351562 90.613281 161.566406 91.671875 162.929688 91.671875 C 163.082031 91.671875 163.382812 91.671875 163.535156 91.519531 C 163.988281 91.371094 164.445312 91.371094 164.898438 91.21875 C 166.566406 90.914062 167.625 89.25 167.171875 87.582031 C 167.019531 86.066406 165.351562 85.007812 163.835938 85.308594 Z M 163.835938 85.308594 " fill-opacity="1" fill-rule="nonzero"/><path fill="#ffffff" d="M 277.167969 176.824219 C 275.503906 176.824219 274.140625 178.1875 274.140625 179.851562 L 274.140625 180.15625 C 274.140625 180.609375 274.140625 181.066406 274.140625 181.671875 C 274.140625 183.335938 275.503906 184.703125 277.167969 184.703125 C 278.835938 184.703125 280.199219 183.335938 280.199219 181.671875 C 280.199219 181.214844 280.199219 180.609375 280.199219 180.15625 L 280.199219 179.851562 C 280.199219 178.1875 278.835938 176.824219 277.167969 176.824219 Z M 277.167969 176.824219 " fill-opacity="1" fill-rule="nonzero"/><path fill="#ffffff" d="M 276.714844 206.214844 C 276.867188 205.761719 277.015625 205.15625 277.167969 204.699219 C 277.625 203.035156 276.5625 201.367188 275.046875 201.066406 C 273.382812 200.609375 271.867188 201.671875 271.410156 203.1875 C 271.261719 203.640625 271.109375 204.09375 270.957031 204.550781 C 270.503906 206.214844 271.410156 207.882812 273.078125 208.335938 C 273.382812 208.335938 273.683594 208.488281 273.835938 208.488281 C 275.046875 208.488281 276.261719 207.578125 276.714844 206.214844 Z M 276.714844 206.214844 " fill-opacity="1" fill-rule="nonzero"/><path fill="#ffffff" d="M 279.140625 194.09375 C 279.140625 193.640625 279.289062 193.035156 279.289062 192.578125 C 279.441406 190.914062 278.382812 189.398438 276.714844 189.246094 C 275.046875 189.09375 273.53125 190.15625 273.382812 191.824219 C 273.382812 192.277344 273.230469 192.730469 273.230469 193.335938 C 272.925781 195.003906 274.140625 196.519531 275.804688 196.820312 C 275.957031 196.820312 276.109375 196.820312 276.261719 196.820312 C 277.773438 196.671875 278.988281 195.609375 279.140625 194.09375 Z M 279.140625 194.09375 " fill-opacity="1" fill-rule="nonzero"/><g clip-path="url(#341a5b18bf)"><path fill="#ffffff" d="M 198.382812 269.851562 C 197.929688 270.003906 197.472656 270.003906 197.019531 270.003906 C 195.351562 270.304688 194.292969 271.820312 194.441406 273.488281 C 194.59375 275.003906 195.957031 276.0625 197.472656 276.0625 C 197.625 276.0625 197.777344 276.0625 197.929688 276.0625 C 198.382812 276.0625 198.988281 275.910156 199.441406 275.761719 C 201.109375 275.457031 202.171875 273.941406 201.867188 272.277344 C 201.5625 270.761719 200.050781 269.699219 198.382812 269.851562 Z M 198.382812 269.851562 " fill-opacity="1" fill-rule="nonzero"/></g><g clip-path="url(#19d528cc77)"><path fill="#ffffff" d="M 186.867188 271.0625 C 186.414062 271.0625 185.957031 271.0625 185.351562 271.0625 C 183.6875 271.0625 182.320312 272.425781 182.320312 274.09375 C 182.320312 275.761719 183.6875 277.125 185.351562 277.125 C 185.808594 277.125 186.414062 277.125 186.867188 277.125 C 188.535156 277.125 189.898438 275.609375 189.746094 273.941406 C 189.898438 272.277344 188.535156 270.910156 186.867188 271.0625 Z M 186.867188 271.0625 " fill-opacity="1" fill-rule="nonzero"/></g><path fill="#ffffff" d="M 186.714844 83.1875 C 185.050781 83.1875 183.6875 84.398438 183.6875 86.066406 C 183.6875 87.734375 184.898438 89.097656 186.566406 89.25 C 187.019531 89.25 187.472656 89.25 188.078125 89.25 C 188.078125 89.25 188.230469 89.25 188.230469 89.25 C 189.898438 89.25 191.109375 88.035156 191.261719 86.371094 C 191.261719 84.703125 190.050781 83.339844 188.382812 83.1875 C 187.777344 83.339844 187.320312 83.1875 186.714844 83.1875 Z M 186.714844 83.1875 " fill-opacity="1" fill-rule="nonzero"/><g clip-path="url(#bdc0b5b316)"><path fill="#ffffff" d="M 175.351562 270.609375 C 174.898438 270.609375 174.445312 270.457031 173.835938 270.457031 C 172.171875 270.304688 170.65625 271.519531 170.503906 273.183594 C 170.351562 274.851562 171.566406 276.367188 173.230469 276.519531 C 173.6875 276.519531 174.292969 276.667969 174.746094 276.667969 C 174.898438 276.667969 174.898438 276.667969 175.050781 276.667969 C 176.566406 276.667969 177.929688 275.457031 178.078125 273.941406 C 178.230469 272.277344 177.019531 270.761719 175.351562 270.609375 Z M 175.351562 270.609375 " fill-opacity="1" fill-rule="nonzero"/></g><path fill="#ffffff" d="M 174.746094 89.703125 C 174.898438 89.703125 174.898438 89.703125 175.050781 89.703125 C 175.503906 89.703125 175.957031 89.550781 176.566406 89.550781 C 178.230469 89.398438 179.445312 87.882812 179.292969 86.21875 C 179.140625 84.550781 177.625 83.339844 176.109375 83.492188 C 175.65625 83.492188 175.050781 83.640625 174.59375 83.640625 C 172.929688 83.792969 171.714844 85.308594 171.867188 86.976562 C 171.867188 88.492188 173.230469 89.703125 174.746094 89.703125 Z M 174.746094 89.703125 " fill-opacity="1" fill-rule="nonzero"/><path fill="#ffffff" d="M 209.441406 92.882812 C 209.898438 93.035156 210.351562 93.1875 210.804688 93.339844 C 211.109375 93.492188 211.414062 93.492188 211.714844 93.492188 C 212.929688 93.492188 214.140625 92.734375 214.59375 91.371094 C 215.050781 89.703125 214.140625 88.035156 212.625 87.582031 C 212.171875 87.429688 211.714844 87.277344 211.109375 87.128906 C 209.441406 86.671875 207.777344 87.582031 207.320312 89.25 C 206.867188 90.761719 207.777344 92.429688 209.441406 92.882812 Z M 209.441406 92.882812 " fill-opacity="1" fill-rule="nonzero"/><path fill="#ffffff" d="M 220.503906 263.335938 C 220.046875 263.488281 219.59375 263.789062 219.140625 263.941406 C 217.625 264.546875 216.867188 266.367188 217.472656 267.882812 C 217.925781 269.09375 219.140625 269.699219 220.199219 269.699219 C 220.65625 269.699219 220.957031 269.546875 221.414062 269.398438 C 221.867188 269.246094 222.320312 268.941406 222.777344 268.789062 C 224.292969 268.183594 225.046875 266.367188 224.292969 264.851562 C 223.835938 263.335938 222.019531 262.578125 220.503906 263.335938 Z M 220.503906 263.335938 " fill-opacity="1" fill-rule="nonzero"/><path fill="#ffffff" d="M 209.59375 267.277344 C 209.140625 267.425781 208.683594 267.578125 208.230469 267.730469 C 206.5625 268.183594 205.65625 269.851562 206.109375 271.519531 C 206.414062 272.882812 207.625 273.789062 208.988281 273.789062 C 209.292969 273.789062 209.59375 273.789062 209.746094 273.640625 C 210.199219 273.488281 210.804688 273.335938 211.261719 273.183594 C 212.925781 272.730469 213.835938 271.0625 213.230469 269.398438 C 212.625 267.730469 211.261719 266.820312 209.59375 267.277344 Z M 209.59375 267.277344 " fill-opacity="1" fill-rule="nonzero"/><path fill="#ffffff" d="M 200.503906 84.703125 C 200.050781 84.550781 199.441406 84.550781 198.988281 84.398438 C 197.320312 84.097656 195.808594 85.308594 195.503906 86.976562 C 195.199219 88.640625 196.414062 90.15625 198.078125 90.460938 C 198.535156 90.460938 198.988281 90.613281 199.441406 90.761719 C 199.59375 90.761719 199.746094 90.761719 199.898438 90.761719 C 201.261719 90.761719 202.625 89.703125 202.929688 88.1875 C 203.230469 86.519531 202.171875 84.855469 200.503906 84.703125 Z M 200.503906 84.703125 " fill-opacity="1" fill-rule="nonzero"/><path fill="#ffffff" d="M 111.414062 152.882812 C 117.324219 152.882812 123.382812 150.761719 127.777344 146.519531 C 136.109375 138.488281 138.082031 126.976562 133.082031 115.914062 C 131.867188 113.339844 130.65625 111.066406 129.445312 109.097656 C 128.082031 106.824219 126.109375 106.976562 125.65625 106.976562 C 124.898438 107.125 123.230469 107.582031 122.476562 110.003906 C 122.324219 110.613281 122.171875 110.914062 122.019531 111.367188 C 121.867188 110.460938 121.867188 108.945312 121.867188 107.882812 C 121.867188 107.125 121.867188 106.371094 121.867188 105.761719 C 121.414062 97.125 117.929688 89.25 112.625 84.398438 C 110.808594 82.734375 108.988281 83.1875 108.382812 83.492188 C 107.777344 83.792969 106.261719 84.703125 106.261719 87.277344 C 106.261719 88.945312 105.503906 94.097656 98.535156 103.640625 C 91.871094 112.882812 83.535156 126.824219 89.746094 140.15625 C 92.625 146.367188 98.839844 151.066406 106.414062 152.429688 C 108.234375 152.730469 109.746094 152.882812 111.414062 152.882812 Z M 112.171875 87.277344 L 109.140625 87.277344 Z M 98.382812 141.824219 C 97.171875 140.609375 96.113281 139.097656 95.355469 137.582031 C 90.355469 127.125 97.625 115.308594 103.382812 107.125 C 108.082031 100.761719 110.355469 95.761719 111.414062 92.128906 C 113.988281 95.914062 115.503906 100.761719 115.808594 106.066406 C 115.808594 106.519531 115.808594 106.976562 115.808594 107.582031 C 115.65625 110.613281 115.65625 116.367188 120.808594 117.882812 C 122.019531 118.1875 123.382812 118.1875 124.445312 117.429688 C 125.203125 116.976562 125.808594 116.519531 126.414062 115.613281 C 126.867188 116.367188 127.171875 117.277344 127.625 118.1875 C 131.261719 126.21875 130.351562 134.246094 125.203125 140.308594 C 125.65625 137.429688 125.203125 134.246094 123.839844 131.21875 C 123.230469 129.855469 122.625 128.640625 122.019531 127.429688 C 121.109375 125.914062 119.597656 125.460938 118.535156 125.609375 C 118.382812 125.609375 118.382812 125.609375 118.230469 125.609375 C 117.777344 121.066406 115.960938 116.824219 113.234375 114.246094 C 112.171875 113.1875 110.808594 112.882812 109.445312 113.492188 C 108.988281 113.945312 107.476562 114.855469 107.476562 117.125 C 107.476562 117.734375 107.171875 120.15625 103.839844 124.855469 C 100.808594 129.246094 97.324219 135.460938 98.382812 141.824219 Z M 104.898438 142.882812 C 103.234375 139.246094 104.445312 134.550781 108.839844 128.339844 C 110.050781 126.671875 110.960938 125.003906 111.71875 123.488281 C 112.019531 124.550781 112.324219 125.761719 112.324219 126.976562 C 112.324219 127.125 112.324219 127.429688 112.324219 127.734375 C 112.324219 129.398438 112.171875 133.339844 115.808594 134.550781 C 116.71875 134.855469 117.625 134.855469 118.382812 134.398438 C 119.898438 138.339844 119.140625 142.125 116.566406 144.851562 C 113.234375 148.1875 106.71875 147.125 104.898438 142.882812 Z M 104.898438 142.882812 " fill-opacity="1" fill-rule="nonzero"/><path fill="#ffffff" d="M 152.777344 265.457031 C 152.625 265.457031 152.625 265.457031 152.472656 265.304688 C 150.960938 266.519531 149.140625 267.277344 147.324219 267.425781 C 147.171875 268.789062 147.929688 270.003906 149.292969 270.457031 C 149.746094 270.609375 150.203125 270.761719 150.808594 271.0625 C 151.109375 271.214844 151.566406 271.214844 151.867188 271.214844 C 153.082031 271.214844 154.292969 270.457031 154.746094 269.246094 C 155.203125 267.882812 154.445312 266.0625 152.777344 265.457031 Z M 152.777344 265.457031 " fill-opacity="1" fill-rule="nonzero"/><g clip-path="url(#7d25e1500b)"><path fill="#ffffff" d="M 149.292969 260.15625 C 150.203125 258.640625 149.59375 256.820312 148.230469 256.0625 L 143.535156 253.335938 L 148.082031 252.882812 C 149.746094 252.730469 150.960938 251.214844 150.808594 249.546875 C 150.65625 247.882812 149.140625 246.667969 147.625 246.820312 L 134.597656 247.882812 L 125.203125 242.277344 L 134.597656 236.671875 L 147.625 237.730469 C 147.777344 237.730469 147.777344 237.730469 147.929688 237.730469 C 149.445312 237.730469 150.808594 236.519531 150.960938 235.003906 C 151.109375 233.335938 149.898438 231.820312 148.230469 231.671875 L 143.6875 231.214844 L 147.929688 228.640625 C 149.292969 227.730469 149.898438 225.914062 148.988281 224.550781 C 148.082031 223.035156 146.261719 222.578125 144.898438 223.488281 L 140.203125 226.214844 L 141.867188 221.972656 C 142.472656 220.457031 141.71875 218.640625 140.203125 218.035156 C 138.6875 217.429688 136.867188 218.183594 136.261719 219.699219 L 131.566406 231.214844 L 121.109375 237.730469 L 121.109375 226.519531 L 129.445312 216.214844 C 130.503906 214.851562 130.351562 213.035156 128.988281 211.972656 C 127.777344 210.914062 125.808594 211.0625 124.746094 212.429688 L 121.109375 216.972656 L 121.109375 210.457031 C 121.109375 208.792969 119.746094 207.429688 118.082031 207.429688 C 116.414062 207.429688 115.050781 208.792969 115.050781 210.457031 L 115.050781 216.972656 L 111.414062 212.429688 C 110.355469 211.0625 108.535156 210.914062 107.171875 211.972656 C 105.960938 213.035156 105.65625 215.003906 106.71875 216.214844 L 115.050781 226.519531 L 115.050781 236.214844 L 105.203125 230.304688 L 100.960938 219.851562 C 100.355469 218.335938 98.535156 217.578125 97.019531 218.183594 C 95.503906 218.792969 94.746094 220.609375 95.355469 222.125 L 96.566406 225.304688 L 93.6875 223.640625 C 92.324219 222.730469 90.355469 223.335938 89.597656 224.699219 C 88.6875 226.214844 89.292969 228.035156 90.65625 228.792969 L 94.746094 231.214844 L 88.992188 231.671875 C 87.324219 231.820312 86.113281 233.335938 86.261719 235.003906 C 86.414062 236.519531 87.777344 237.730469 89.292969 237.730469 C 89.445312 237.730469 89.445312 237.730469 89.597656 237.730469 L 103.535156 236.519531 C 103.535156 236.519531 103.6875 236.519531 103.6875 236.519531 L 113.234375 242.277344 L 103.839844 247.882812 L 90.808594 246.820312 C 89.140625 246.667969 87.625 247.882812 87.625 249.546875 C 87.476562 251.214844 88.6875 252.730469 90.355469 252.882812 L 94.898438 253.335938 L 90.203125 255.914062 C 88.839844 256.820312 88.234375 258.640625 89.140625 260.003906 C 89.746094 260.910156 90.65625 261.519531 91.71875 261.519531 C 92.171875 261.519531 92.777344 261.367188 93.234375 261.0625 L 98.382812 258.035156 L 96.71875 262.277344 C 96.113281 263.789062 96.867188 265.609375 98.382812 266.214844 C 98.6875 266.367188 99.140625 266.367188 99.445312 266.367188 C 100.65625 266.367188 101.71875 265.609375 102.171875 264.546875 L 106.867188 253.035156 L 115.050781 248.335938 L 115.050781 258.640625 L 106.71875 268.941406 C 105.65625 270.304688 105.808594 272.125 107.171875 273.183594 C 108.382812 274.246094 110.355469 274.09375 111.414062 272.730469 L 115.050781 268.183594 L 115.050781 274.09375 C 115.050781 275.761719 116.414062 277.125 118.082031 277.125 C 119.746094 277.125 121.109375 275.761719 121.109375 274.09375 L 121.109375 268.183594 L 124.746094 272.730469 C 125.351562 273.488281 126.261719 273.789062 127.019531 273.789062 C 127.625 273.789062 128.382812 273.640625 128.988281 273.03125 C 130.203125 271.972656 130.503906 270.003906 129.445312 268.789062 L 121.109375 258.488281 L 121.109375 246.820312 L 131.414062 253.035156 L 136.109375 264.546875 C 136.566406 265.761719 137.777344 266.367188 138.839844 266.367188 C 139.140625 266.367188 139.59375 266.367188 139.898438 266.214844 C 141.414062 265.609375 142.171875 263.789062 141.566406 262.277344 L 139.898438 258.035156 L 145.050781 261.0625 C 145.503906 261.367188 146.109375 261.519531 146.566406 261.519531 C 147.625 261.667969 148.6875 261.0625 149.292969 260.15625 Z M 149.292969 260.15625 " fill-opacity="1" fill-rule="nonzero"/></g><path fill="#ffffff" d="M 228.382812 262.730469 C 228.835938 263.488281 229.441406 263.941406 230.199219 264.09375 C 229.746094 262.425781 229.292969 260.609375 229.140625 258.789062 C 228.078125 259.851562 227.625 261.519531 228.382812 262.730469 Z M 228.382812 262.730469 " fill-opacity="1" fill-rule="nonzero"/><path fill="#ffffff" d="M 272.625 218.035156 C 272.773438 217.578125 273.078125 217.125 273.230469 216.671875 C 273.835938 215.15625 273.078125 213.335938 271.5625 212.730469 C 270.199219 212.125 268.683594 212.730469 267.925781 213.792969 C 268.683594 215.609375 269.746094 217.730469 270.957031 219.699219 C 271.5625 219.398438 272.320312 218.792969 272.625 218.035156 Z M 272.625 218.035156 " fill-opacity="1" fill-rule="nonzero"/><g clip-path="url(#ade0cca84b)"><path fill="#ffffff" d="M 261.109375 212.277344 C 260.503906 210.15625 259.898438 207.429688 257.167969 207.429688 C 254.441406 207.429688 253.835938 210.15625 253.230469 211.972656 C 251.714844 217.429688 248.53125 222.730469 245.351562 228.488281 C 240.046875 237.730469 234.441406 247.425781 235.351562 258.183594 C 236.109375 268.03125 243.535156 275.304688 254.140625 276.820312 C 255.351562 276.972656 256.5625 277.125 257.777344 277.125 C 266.109375 277.125 275.199219 273.335938 278.835938 263.941406 C 283.683594 251.214844 276.261719 239.398438 269.894531 229.09375 C 265.957031 223.183594 262.472656 217.730469 261.109375 212.277344 Z M 273.078125 261.820312 C 270.199219 269.398438 261.5625 271.820312 254.898438 270.910156 C 248.683594 270.003906 241.867188 266.0625 241.261719 257.730469 C 240.503906 248.941406 245.65625 240.15625 250.503906 231.671875 C 252.925781 227.578125 255.351562 223.335938 257.167969 218.941406 C 259.140625 223.488281 261.867188 228.035156 264.59375 232.277344 C 270.804688 242.425781 276.714844 251.820312 273.078125 261.820312 Z M 273.078125 261.820312 " fill-opacity="1" fill-rule="nonzero"/></g><path fill="#ffffff" d="M 258.988281 242.730469 C 257.625 243.640625 257.167969 245.457031 258.078125 246.972656 C 258.078125 246.972656 262.167969 253.789062 259.898438 259.398438 C 259.289062 260.910156 260.046875 262.730469 261.5625 263.335938 C 261.867188 263.488281 262.320312 263.640625 262.773438 263.640625 C 263.988281 263.640625 265.046875 262.882812 265.503906 261.820312 C 268.988281 253.183594 263.382812 244.246094 263.230469 243.941406 C 262.320312 242.277344 260.351562 241.820312 258.988281 242.730469 Z M 258.988281 242.730469 " fill-opacity="1" fill-rule="nonzero"/><path fill="#ffffff" d="M 224.140625 91.976562 C 223.683594 91.824219 223.230469 91.519531 222.777344 91.371094 C 221.261719 90.761719 219.441406 91.371094 218.835938 92.882812 C 218.230469 94.398438 218.835938 96.21875 220.351562 96.824219 C 220.804688 96.976562 221.261719 97.277344 221.714844 97.429688 C 222.171875 97.582031 222.472656 97.734375 222.925781 97.734375 C 223.683594 97.734375 224.292969 97.429688 224.898438 96.976562 C 224.59375 95.613281 224.59375 93.945312 224.746094 92.277344 C 224.441406 92.277344 224.292969 92.128906 224.140625 91.976562 Z M 224.140625 91.976562 " fill-opacity="1" fill-rule="nonzero"/><path fill="#ffffff" d="M 268.078125 147.125 C 268.53125 148.339844 269.746094 149.097656 270.957031 149.097656 C 271.261719 149.097656 271.714844 149.097656 272.019531 148.945312 C 273.53125 148.339844 274.289062 146.519531 273.683594 145.003906 C 273.53125 144.550781 273.382812 144.097656 273.078125 143.488281 C 272.472656 141.976562 270.652344 141.21875 269.140625 141.824219 C 268.683594 141.976562 268.230469 142.277344 267.925781 142.730469 C 267.773438 143.488281 267.625 144.398438 267.320312 145.308594 C 267.320312 145.460938 267.472656 145.609375 267.472656 145.914062 C 267.625 146.21875 267.925781 146.671875 268.078125 147.125 Z M 268.078125 147.125 " fill-opacity="1" fill-rule="nonzero"/></svg>