<svg xmlns="http://www.w3.org/2000/svg" xmlns:xlink="http://www.w3.org/1999/xlink" width="500" zoomAndPan="magnify" viewBox="0 0 375 374.999991" height="500" preserveAspectRatio="xMidYMid meet" version="1.0"><defs><clipPath id="7e9bd292b2"><path d="M 91.417969 72.824219 L 283.417969 72.824219 L 283.417969 264.824219 L 91.417969 264.824219 Z M 91.417969 72.824219 " clip-rule="nonzero"/></clipPath></defs><path fill="#ffffff" d="M 232.464844 181.308594 C 232.152344 181.308594 231.835938 181.242188 231.546875 181.121094 L 227.667969 179.5 C 226.460938 178.996094 225.890625 177.597656 226.390625 176.394531 C 226.902344 175.191406 228.296875 174.617188 229.496094 175.121094 L 233.375 176.742188 C 234.582031 177.253906 235.15625 178.648438 234.652344 179.847656 C 234.289062 180.734375 233.421875 181.308594 232.464844 181.308594 Z M 187.5 118.207031 C 186.1875 118.207031 185.121094 117.144531 185.121094 115.828125 L 185.121094 111.621094 C 185.121094 110.308594 186.183594 109.242188 187.5 109.242188 C 188.8125 109.242188 189.875 110.304688 189.875 111.621094 L 189.875 115.828125 C 189.871094 117.140625 188.808594 118.207031 187.5 118.207031 Z M 204.507812 121.59375 C 204.191406 121.59375 203.878906 121.527344 203.59375 121.410156 C 202.390625 120.90625 201.816406 119.507812 202.320312 118.300781 L 203.945312 114.417969 C 204.453125 113.214844 205.847656 112.640625 207.046875 113.144531 C 208.253906 113.648438 208.824219 115.050781 208.324219 116.253906 L 206.699219 120.132812 C 206.324219 121.015625 205.464844 121.59375 204.507812 121.59375 Z M 218.925781 131.222656 C 218.285156 131.222656 217.679688 130.96875 217.242188 130.515625 C 216.324219 129.585938 216.324219 128.082031 217.253906 127.160156 L 220.257812 124.183594 C 221.191406 123.261719 222.691406 123.273438 223.617188 124.199219 C 224.542969 125.128906 224.535156 126.636719 223.601562 127.558594 L 220.601562 130.53125 C 220.15625 130.976562 219.550781 131.222656 218.925781 131.222656 Z M 228.585938 145.648438 C 227.621094 145.648438 226.75 145.0625 226.386719 144.171875 C 225.894531 142.964844 226.472656 141.570312 227.675781 141.074219 L 231.558594 139.480469 C 232.765625 138.980469 234.164062 139.5625 234.664062 140.769531 C 235.160156 141.976562 234.578125 143.375 233.367188 143.867188 L 229.484375 145.460938 C 229.203125 145.582031 228.894531 145.648438 228.585938 145.648438 Z M 170.488281 121.59375 C 169.53125 121.59375 168.671875 121.015625 168.300781 120.132812 L 166.679688 116.253906 C 166.171875 115.046875 166.75 113.648438 167.953125 113.144531 C 169.160156 112.640625 170.558594 113.214844 171.058594 114.417969 L 172.683594 118.300781 C 173.191406 119.507812 172.613281 120.90625 171.40625 121.410156 C 171.117188 121.523438 170.804688 121.59375 170.488281 121.59375 Z M 156.066406 131.222656 C 155.4375 131.222656 154.839844 130.976562 154.394531 130.53125 L 151.394531 127.558594 C 150.460938 126.636719 150.457031 125.128906 151.382812 124.199219 C 152.304688 123.265625 153.804688 123.261719 154.742188 124.183594 L 157.742188 127.160156 C 158.671875 128.082031 158.683594 129.585938 157.753906 130.519531 C 157.308594 130.96875 156.703125 131.222656 156.066406 131.222656 Z M 146.40625 145.648438 C 146.097656 145.648438 145.789062 145.582031 145.503906 145.46875 L 141.625 143.871094 C 140.417969 143.375 139.832031 141.984375 140.328125 140.773438 C 140.828125 139.5625 142.222656 138.984375 143.433594 139.484375 L 147.3125 141.078125 C 148.519531 141.578125 149.101562 142.964844 148.605469 144.175781 C 148.242188 145.0625 147.367188 145.648438 146.40625 145.648438 Z M 236.183594 162.679688 L 231.972656 162.679688 C 230.660156 162.679688 229.59375 161.617188 229.59375 160.304688 C 229.59375 158.988281 230.65625 157.925781 231.972656 157.925781 L 236.183594 157.925781 C 237.496094 157.925781 238.554688 158.988281 238.558594 160.304688 C 238.554688 161.613281 237.492188 162.679688 236.183594 162.679688 Z M 143.023438 162.679688 L 138.8125 162.679688 C 137.5 162.679688 136.4375 161.617188 136.4375 160.304688 C 136.4375 158.988281 137.5 157.925781 138.8125 157.925781 L 143.023438 157.925781 C 144.339844 157.925781 145.394531 158.988281 145.394531 160.304688 C 145.394531 161.613281 144.339844 162.679688 143.023438 162.679688 Z M 142.53125 181.308594 C 141.574219 181.308594 140.707031 180.734375 140.339844 179.847656 C 139.835938 178.640625 140.410156 177.242188 141.613281 176.738281 L 145.496094 175.113281 C 146.699219 174.605469 148.101562 175.183594 148.597656 176.390625 C 149.105469 177.597656 148.527344 178.996094 147.324219 179.492188 L 143.441406 181.117188 C 143.152344 181.246094 142.84375 181.308594 142.53125 181.308594 Z M 142.53125 181.308594 " fill-opacity="1" fill-rule="evenodd"/><path fill="#ffffff" d="M 202.777344 151.425781 L 202.777344 169.179688 L 203.539062 169.179688 C 208.164062 169.179688 211.925781 165.417969 211.925781 160.796875 L 211.925781 159.808594 C 211.925781 155.1875 208.164062 151.425781 203.539062 151.425781 Z M 202.777344 151.425781 " fill-opacity="1" fill-rule="evenodd"/><path fill="#ffffff" d="M 162.472656 133.871094 C 155.15625 140.808594 151.125 150.191406 151.125 160.269531 C 151.125 170.582031 155.527344 180.449219 163.210938 187.332031 C 167.085938 190.804688 169.359375 195.679688 169.5 200.792969 L 205.476562 200.792969 C 205.523438 195.707031 207.679688 190.933594 211.402344 187.679688 C 219.613281 180.519531 224.144531 170.152344 223.835938 159.230469 C 223.308594 140.425781 208.203125 124.925781 189.457031 123.949219 C 188.785156 123.914062 188.121094 123.894531 187.457031 123.894531 C 178.101562 123.898438 169.292969 127.402344 162.472656 133.871094 Z M 185.335938 158.914062 L 193.859375 158.914062 C 194.628906 158.914062 195.25 159.53125 195.25 160.304688 C 195.25 161.070312 194.632812 161.695312 193.859375 161.695312 L 185.335938 161.695312 L 185.335938 169.179688 L 193.859375 169.179688 C 194.628906 169.179688 195.25 169.800781 195.25 170.570312 C 195.25 171.339844 194.632812 171.960938 193.859375 171.960938 L 183.949219 171.960938 C 183.183594 171.960938 182.5625 171.34375 182.5625 170.570312 L 182.5625 150.035156 C 182.5625 149.269531 183.179688 148.644531 183.949219 148.644531 L 193.855469 148.644531 C 194.621094 148.644531 195.246094 149.261719 195.246094 150.035156 C 195.246094 150.804688 194.628906 151.425781 193.855469 151.425781 L 185.335938 151.425781 Z M 203.539062 148.652344 C 209.691406 148.652344 214.699219 153.652344 214.699219 159.808594 L 214.699219 160.796875 C 214.699219 166.949219 209.699219 171.957031 203.539062 171.957031 L 201.394531 171.957031 C 200.625 171.957031 200.003906 171.339844 200.003906 170.566406 L 200.003906 150.035156 C 200.003906 149.269531 200.621094 148.644531 201.394531 148.644531 Z M 167.859375 169.175781 L 176.378906 169.175781 C 177.144531 169.175781 177.769531 169.792969 177.769531 170.566406 C 177.769531 171.332031 177.152344 171.957031 176.378906 171.957031 L 166.472656 171.957031 C 165.707031 171.957031 165.085938 171.339844 165.085938 170.566406 L 165.085938 150.035156 C 165.085938 149.269531 165.703125 148.644531 166.472656 148.644531 C 167.242188 148.644531 167.863281 149.261719 167.863281 150.035156 Z M 167.859375 169.175781 " fill-opacity="1" fill-rule="evenodd"/><path fill="#ffffff" d="M 197.378906 219.976562 L 177.613281 219.976562 C 178.292969 224.824219 182.464844 228.570312 187.5 228.570312 C 192.53125 228.570312 196.703125 224.828125 197.378906 219.976562 Z M 197.378906 219.976562 " fill-opacity="1" fill-rule="evenodd"/><path fill="#ffffff" d="M 205.488281 211.777344 L 169.511719 211.777344 L 169.511719 212.785156 C 169.511719 215.21875 171.496094 217.203125 173.933594 217.203125 L 201.09375 217.203125 C 203.515625 217.203125 205.488281 215.21875 205.488281 212.785156 Z M 205.488281 211.777344 " fill-opacity="1" fill-rule="evenodd"/><path fill="#ffffff" d="M 169.511719 203.578125 L 205.488281 203.578125 L 205.488281 209.003906 L 169.511719 209.003906 Z M 169.511719 203.578125 " fill-opacity="1" fill-rule="evenodd"/><g clip-path="url(#7e9bd292b2)"><path fill="#ffffff" d="M 187.5 72.824219 C 214.015625 72.824219 238.039062 83.585938 255.441406 100.964844 C 272.820312 118.339844 283.582031 142.363281 283.582031 168.90625 C 283.582031 195.425781 272.820312 219.449219 255.441406 236.851562 C 238.066406 254.226562 214.042969 264.988281 187.5 264.988281 C 160.980469 264.988281 136.957031 254.226562 119.554688 236.851562 C 102.175781 219.472656 91.417969 195.457031 91.417969 168.90625 C 91.417969 142.386719 102.175781 118.367188 119.554688 100.964844 C 136.929688 83.5625 160.949219 72.824219 187.5 72.824219 Z M 252.394531 103.980469 C 235.785156 87.371094 212.835938 77.105469 187.5 77.105469 C 162.128906 77.109375 139.183594 87.371094 122.574219 103.980469 C 105.964844 120.59375 95.695312 143.542969 95.695312 168.882812 C 95.695312 194.21875 105.964844 217.167969 122.574219 233.777344 C 139.183594 250.386719 162.128906 260.65625 187.46875 260.65625 C 212.804688 260.65625 235.757812 250.386719 252.363281 233.777344 C 268.96875 217.167969 279.242188 194.21875 279.242188 168.882812 C 279.269531 143.542969 269.003906 120.59375 252.394531 103.980469 Z M 252.394531 103.980469 " fill-opacity="1" fill-rule="nonzero"/></g></svg>