<svg xmlns="http://www.w3.org/2000/svg" width="100" height="100" fill="none" viewBox="0 0 100 100">
  <g>
    <path fill="none" d="M0 0h100v100H0z"/>
    <circle cx="50" cy="50" r="50" fill="currentColor"/>
    <path fill="#fff" d="M53.228 21.919v6.944c0 2.373-1.055 3.515-3.252 3.515-2.196 0-3.25-1.142-3.25-3.515v-6.944c0-2.287 1.054-3.429 3.25-3.429 2.197 0 3.252 1.142 3.252 3.429Zm6.592 9.14 4.045-5.712c1.319-1.758 2.99-2.11 4.657-.88 1.668 1.229 1.845 2.812.529 4.747l-4.045 5.625c-1.319 1.935-2.9 2.11-4.657.88-1.67-1.231-1.845-2.725-.529-4.657v-.003Zm-23.732-5.625 4.132 5.625c1.319 1.935 1.142 3.429-.616 4.658-1.67 1.319-3.251 1.054-4.57-.88l-4.132-5.626c-1.319-1.935-1.142-3.428.616-4.657 1.67-1.32 3.251-1.055 4.57.88Zm13.888 10.899c7.56 0 13.711 6.153 13.711 13.71 0 7.47-6.153 13.537-13.71 13.537-7.558 0-13.711-6.064-13.711-13.536 0-7.56 6.153-13.711 13.71-13.711Zm-25.664 1.935 6.68 2.109c2.197.703 2.99 2.022 2.287 4.131-.616 2.11-2.11 2.726-4.396 2.023l-6.506-2.11c-2.196-.703-2.99-2.109-2.373-4.218.703-2.023 2.112-2.639 4.308-1.935Zm44.736 2.109 6.593-2.11c2.286-.703 3.692-.087 4.305 1.936.704 2.109-.087 3.515-2.373 4.131l-6.506 2.197c-2.196.703-3.602.087-4.306-2.023-.615-2.109.088-3.428 2.287-4.131ZM49.976 57.603c4.22 0 7.648-3.428 7.648-7.56a7.653 7.653 0 0 0-7.648-7.647c-4.218 0-7.56 3.429-7.56 7.648 0 4.131 3.342 7.56 7.56 7.56Zm-27.599-2.022 6.593-2.109c2.196-.703 3.693-.177 4.306 1.935.703 2.11-.087 3.428-2.287 4.132l-6.68 2.196c-2.196.703-3.602.087-4.305-2.022-.616-2.11.177-3.428 2.373-4.132Zm48.693-2.109 6.593 2.11c2.196.703 2.99 2.021 2.286 4.13-.616 2.11-2.022 2.726-4.306 2.023l-6.592-2.197c-2.287-.703-2.9-2.022-2.287-4.131.703-2.11 2.11-2.638 4.306-1.935ZM30.905 70.698l4.131-5.537c1.32-1.935 2.9-2.197 4.57-.88 1.759 1.231 1.936 2.725.617 4.657l-4.132 5.538c-1.319 1.935-2.9 2.286-4.657 1.054-1.671-1.231-1.845-2.897-.53-4.832Zm34.101-5.537 4.045 5.537c1.319 1.936 1.142 3.603-.529 4.835-1.67 1.232-3.341.79-4.657-.967L59.82 68.94c-1.319-1.935-1.142-3.429.529-4.658 1.758-1.232 3.341-1.057 4.657.878Zm-11.778 5.89v6.943c0 2.374-1.055 3.516-3.252 3.516-2.196 0-3.25-1.142-3.25-3.516V71.05c0-2.374 1.054-3.516 3.25-3.516 2.197 0 3.252 1.142 3.252 3.516Z"/>
  </g>
</svg>
