<svg xmlns="http://www.w3.org/2000/svg" width="120" height="120" fill="none" viewBox="0 0 120 120">
  <path fill="CurrentColor" d="M120 60c0 33.137-26.863 60-60 60S0 93.137 0 60 26.863 0 60 0s60 26.863 60 60Z"/>
  <path fill="#fff" d="M63.873 26.302v8.333c0 2.849-1.265 4.219-3.901 4.219s-3.902-1.37-3.902-4.219v-8.333c0-2.744 1.266-4.114 3.902-4.114s3.901 1.37 3.901 4.114Zm7.911 10.97 4.853-6.855c1.583-2.11 3.588-2.532 5.59-1.057 2 1.475 2.213 3.375.634 5.697l-4.853 6.75c-1.583 2.322-3.48 2.531-5.59 1.056-2.004-1.478-2.213-3.27-.634-5.588v-.004Zm-28.478-6.75 4.958 6.75c1.583 2.321 1.37 4.113-.74 5.588-2.004 1.583-3.9 1.266-5.484-1.056l-4.957-6.75c-1.583-2.322-1.37-4.114.739-5.59 2.004-1.582 3.901-1.265 5.484 1.057Zm16.666 13.077c9.072 0 16.453 7.385 16.453 16.453 0 8.964-7.385 16.244-16.453 16.244-9.069 0-16.453-7.276-16.453-16.244 0-9.072 7.384-16.453 16.453-16.453Zm-30.797 2.322 8.015 2.532c2.636.843 3.588 2.426 2.744 4.957-.739 2.532-2.53 3.27-5.275 2.427l-7.806-2.531c-2.636-.844-3.588-2.531-2.849-5.063.844-2.426 2.535-3.166 5.17-2.322Zm53.683 2.532 7.91-2.532c2.745-.843 4.432-.104 5.168 2.322.843 2.532-.105 4.219-2.849 4.958l-7.806 2.636c-2.636.844-4.324.105-5.167-2.427-.74-2.53.104-4.114 2.744-4.957ZM59.972 69.124c5.062 0 9.176-4.114 9.176-9.072 0-5.062-4.114-9.176-9.176-9.176-5.063 0-9.072 4.114-9.072 9.176 0 4.958 4.01 9.072 9.072 9.072Zm-33.12-2.426 7.912-2.531c2.636-.844 4.431-.213 5.167 2.322.844 2.53-.105 4.114-2.744 4.957l-8.015 2.636c-2.636.844-4.324.105-5.168-2.426-.739-2.532.213-4.115 2.849-4.958Zm58.432-2.531 7.911 2.53c2.636.844 3.588 2.427 2.744 4.959-.739 2.53-2.426 3.27-5.167 2.426l-7.911-2.636c-2.744-.843-3.48-2.426-2.744-4.957.844-2.532 2.531-3.166 5.167-2.323ZM37.086 84.838l4.958-6.645c1.583-2.322 3.48-2.636 5.484-1.056 2.11 1.478 2.322 3.27.74 5.589l-4.959 6.645c-1.582 2.322-3.48 2.744-5.589 1.266-2.004-1.479-2.214-3.477-.634-5.799Zm40.922-6.645 4.853 6.645c1.583 2.322 1.37 4.324-.635 5.802-2.004 1.478-4.009.948-5.588-1.161l-4.854-6.75c-1.583-2.322-1.37-4.114.635-5.589 2.11-1.478 4.01-1.269 5.589 1.053ZM63.873 85.26v8.333c0 2.849-1.265 4.219-3.901 4.219s-3.902-1.37-3.902-4.219V85.26c0-2.848 1.266-4.219 3.902-4.219s3.901 1.37 3.901 4.22Z"/>
</svg>
