<svg xmlns="http://www.w3.org/2000/svg" xmlns:xlink="http://www.w3.org/1999/xlink" width="500" zoomAndPan="magnify" viewBox="0 0 375 374.999991" height="500" preserveAspectRatio="xMidYMid meet" version="1.0"><defs><clipPath id="ed311249db"><path d="M 87.703125 37.5 L 275.953125 37.5 L 275.953125 299.25 L 87.703125 299.25 Z M 87.703125 37.5 " clip-rule="nonzero"/></clipPath></defs><g clip-path="url(#ed311249db)"><path fill="#ffffff" d="M 141.285156 56.941406 C 138.703125 72.332031 139.941406 84.765625 145.011719 94.226562 C 150.378906 104.242188 160.164062 111.09375 174.375 114.769531 C 175.238281 114.996094 176.171875 115.210938 177.148438 115.429688 C 176.5 113.90625 175.832031 112.398438 175.125 110.925781 C 170.261719 100.679688 164.234375 91.71875 159.644531 87.636719 C 158.40625 86.535156 158.300781 84.652344 159.394531 83.417969 C 160.496094 82.179688 162.382812 82.078125 163.621094 83.167969 C 168.542969 87.546875 174.820312 96.675781 179.914062 107.078125 C 180.558594 94.386719 177.796875 84.640625 171.820312 76.882812 C 165.363281 68.511719 155.097656 62.238281 141.273438 56.929688 Z M 185.980469 101.621094 C 185.890625 98.175781 185.527344 94.917969 184.925781 91.855469 C 186.867188 88.386719 188.890625 85.195312 190.859375 82.464844 C 192.949219 79.570312 194.960938 77.222656 196.757812 75.632812 C 197.996094 74.535156 198.097656 72.652344 197.007812 71.414062 C 195.90625 70.179688 194.019531 70.074219 192.78125 71.164062 C 190.699219 73.015625 188.378906 75.703125 186.015625 78.980469 C 184.902344 80.523438 183.765625 82.203125 182.652344 83.996094 C 181.570312 81.226562 180.230469 78.617188 178.636719 76.167969 C 181.035156 68.828125 185.390625 62.816406 191.609375 57.734375 C 197.691406 52.753906 205.570312 48.613281 215.140625 44.9375 C 217.707031 60.285156 216.480469 72.695312 211.433594 82.15625 C 206.589844 91.265625 198.101562 97.753906 185.992188 101.632812 Z M 178.84375 171.566406 C 178.84375 169.910156 180.183594 168.574219 181.84375 168.574219 C 183.503906 168.574219 184.84375 169.910156 184.84375 171.566406 L 184.84375 175.675781 C 188.335938 176.277344 191.472656 177.898438 193.882812 180.210938 C 197.007812 183.195312 198.941406 187.324219 198.941406 191.894531 C 198.941406 193.550781 197.597656 194.890625 195.941406 194.890625 C 194.28125 194.890625 192.9375 193.550781 192.9375 191.894531 C 192.9375 189.015625 191.710938 186.40625 189.734375 184.511719 C 187.71875 182.59375 184.9375 181.402344 181.832031 181.402344 C 178.738281 181.402344 175.945312 182.59375 173.933594 184.511719 C 171.953125 186.40625 170.726562 189.015625 170.726562 191.894531 C 170.726562 194.777344 171.953125 197.386719 173.933594 199.28125 C 175.945312 201.199219 178.730469 202.386719 181.832031 202.386719 C 186.515625 202.386719 190.777344 204.214844 193.871094 207.175781 C 196.996094 210.160156 198.929688 214.289062 198.929688 218.859375 C 198.929688 223.417969 196.996094 227.558594 193.871094 230.542969 C 191.449219 232.855469 188.324219 234.480469 184.832031 235.082031 L 184.832031 239.1875 C 184.832031 240.84375 183.492188 242.183594 181.832031 242.183594 C 180.171875 242.183594 178.832031 240.84375 178.832031 239.1875 L 178.832031 235.082031 C 175.339844 234.480469 172.203125 232.855469 169.792969 230.542969 C 166.667969 227.558594 164.734375 223.429688 164.734375 218.859375 C 164.734375 217.203125 166.078125 215.863281 167.734375 215.863281 C 169.394531 215.863281 170.738281 217.203125 170.738281 218.859375 C 170.738281 221.742188 171.964844 224.351562 173.941406 226.246094 C 175.953125 228.160156 178.738281 229.351562 181.84375 229.351562 C 184.933594 229.351562 187.730469 228.160156 189.742188 226.246094 C 191.722656 224.351562 192.949219 221.742188 192.949219 218.859375 C 192.949219 215.976562 191.722656 213.371094 189.742188 211.472656 C 187.730469 209.558594 184.945312 208.367188 181.84375 208.367188 C 177.160156 208.367188 172.898438 206.539062 169.804688 203.578125 C 166.679688 200.597656 164.746094 196.46875 164.746094 191.894531 C 164.746094 187.335938 166.679688 183.195312 169.804688 180.210938 C 172.226562 177.898438 175.351562 176.277344 178.84375 175.675781 Z M 131.753906 155.390625 C 144.566406 142.609375 162.277344 134.691406 181.84375 134.691406 C 182.195312 134.691406 182.546875 134.691406 182.898438 134.703125 C 182.320312 130.675781 181.183594 126.363281 179.695312 122.03125 C 178.671875 121.847656 177.671875 121.644531 176.691406 121.441406 C 175.453125 121.179688 174.191406 120.875 172.875 120.53125 C 156.96875 116.425781 145.921875 108.589844 139.734375 97.015625 C 133.621094 85.59375 132.390625 70.6875 136.03125 52.3125 L 136.039062 52.3125 C 136.074219 52.164062 136.109375 52.027344 136.15625 51.878906 C 136.710938 50.324219 138.417969 49.519531 139.972656 50.074219 C 155.035156 55.488281 166.5625 61.90625 174.339844 70.5625 C 177.261719 63.757812 181.765625 58.039062 187.800781 53.09375 C 195.132812 47.082031 204.703125 42.273438 216.425781 38.050781 C 217.980469 37.496094 219.6875 38.300781 220.242188 39.855469 C 220.300781 40.003906 220.335938 40.140625 220.359375 40.285156 L 220.367188 40.285156 C 224.007812 58.628906 222.789062 73.511719 216.71875 84.910156 C 210.855469 95.9375 200.566406 103.582031 185.878906 107.847656 C 185.773438 109.617188 185.617188 111.445312 185.390625 113.316406 C 185.378906 113.429688 185.367188 113.542969 185.34375 113.667969 L 184.523438 117.75 C 186.695312 123.605469 188.320312 129.539062 188.992188 135.003906 C 205.691406 136.671875 220.6875 144.136719 231.929688 155.355469 C 244.742188 168.140625 252.675781 185.8125 252.675781 205.335938 C 252.675781 224.847656 244.753906 242.519531 231.929688 255.316406 C 219.117188 268.101562 201.40625 276.019531 181.84375 276.019531 C 162.289062 276.019531 144.578125 268.113281 131.753906 255.316406 C 118.945312 242.53125 111.007812 224.859375 111.007812 205.335938 C 111.007812 185.824219 118.933594 168.152344 131.753906 155.355469 Z M 181.84375 140.679688 C 163.9375 140.679688 147.726562 147.917969 135.996094 159.621094 C 124.265625 171.328125 117.011719 187.503906 117.011719 205.371094 C 117.011719 223.238281 124.265625 239.414062 135.996094 251.121094 C 147.726562 262.828125 163.9375 270.066406 181.84375 270.066406 C 199.746094 270.066406 215.957031 262.828125 227.691406 251.121094 C 239.421875 239.414062 246.671875 223.238281 246.671875 205.371094 C 246.671875 187.507812 239.421875 171.328125 227.691406 159.621094 C 215.957031 147.917969 199.746094 140.679688 181.84375 140.679688 Z M 115 130.324219 L 123.785156 131.492188 C 113.601562 139.464844 105.109375 149.503906 98.925781 160.972656 C 91.796875 174.199219 87.75 189.320312 87.75 205.371094 C 87.75 231.300781 98.277344 254.773438 115.304688 271.753906 C 132.335938 288.746094 155.855469 299.25 181.828125 299.25 C 207.816406 299.25 231.335938 288.746094 248.351562 271.753906 C 265.382812 254.761719 275.910156 231.289062 275.910156 205.371094 C 275.910156 188.117188 271.238281 171.929688 263.074219 158.023438 C 254.628906 143.625 242.453125 131.671875 227.878906 123.492188 C 226.433594 122.683594 224.617188 123.195312 223.796875 124.636719 C 222.992188 126.078125 223.503906 127.890625 224.945312 128.707031 C 238.609375 136.375 250 147.5625 257.914062 161.039062 C 265.539062 174.039062 269.90625 189.191406 269.90625 205.382812 C 269.90625 229.65625 260.050781 251.628906 244.101562 267.53125 C 228.164062 283.4375 206.132812 293.28125 181.816406 293.28125 C 157.488281 293.28125 135.46875 283.449219 119.535156 267.53125 C 103.597656 251.628906 93.730469 229.644531 93.730469 205.382812 C 93.730469 190.328125 97.515625 176.171875 104.175781 163.808594 C 110.042969 152.929688 118.125 143.425781 127.832031 135.902344 L 126.558594 145.453125 C 126.34375 147.089844 127.503906 148.585938 129.140625 148.800781 C 130.777344 149.015625 132.277344 147.859375 132.492188 146.226562 L 134.664062 129.925781 C 134.867188 128.3125 133.753906 126.839844 132.152344 126.589844 C 132.050781 126.566406 131.957031 126.554688 131.855469 126.546875 L 115.746094 124.414062 C 114.109375 124.195312 112.609375 125.355469 112.394531 126.988281 C 112.179688 128.621094 113.339844 130.117188 114.976562 130.332031 Z M 144.316406 167.925781 C 134.710938 177.511719 128.777344 190.75 128.777344 205.371094 C 128.777344 219.996094 134.710938 233.234375 144.316406 242.820312 C 153.921875 252.40625 167.1875 258.328125 181.84375 258.328125 C 196.496094 258.328125 209.761719 252.40625 219.371094 242.820312 C 228.976562 233.234375 234.910156 219.996094 234.910156 205.371094 C 234.910156 190.75 228.976562 177.511719 219.371094 167.925781 C 209.765625 158.339844 196.496094 152.417969 181.84375 152.417969 C 167.1875 152.417969 153.921875 158.339844 144.316406 167.925781 Z M 181.84375 158.398438 C 168.835938 158.398438 157.070312 163.648438 148.554688 172.15625 C 140.042969 180.652344 134.765625 192.40625 134.765625 205.375 C 134.765625 218.339844 140.03125 230.089844 148.554688 238.589844 C 157.070312 247.085938 168.847656 252.347656 181.84375 252.347656 C 194.835938 252.347656 206.613281 247.097656 215.128906 238.589844 C 223.644531 230.09375 228.917969 218.339844 228.917969 205.375 C 228.917969 192.40625 223.65625 180.65625 215.128906 172.15625 C 206.613281 163.660156 194.835938 158.398438 181.84375 158.398438 Z M 181.84375 158.398438 " fill-opacity="1" fill-rule="evenodd"/></g></svg>